<svg xmlns="http://www.w3.org/2000/svg" xmlns:xlink="http://www.w3.org/1999/xlink" zoomAndPan="magnify" preserveAspectRatio="xMidYMid meet" version="1.0" viewBox="75.85 75 665.64 127"><defs><clipPath id="19e394c188"><path d="M 75.847656 75 L 298.332031 75 L 298.332031 202 L 75.847656 202 Z M 75.847656 75 " clip-rule="nonzero"/></clipPath><clipPath id="29ef4f11c8"><path d="M 297.273438 75 L 519.757812 75 L 519.757812 202 L 297.273438 202 Z M 297.273438 75 " clip-rule="nonzero"/></clipPath><clipPath id="410484e526"><path d="M 519 75 L 741.484375 75 L 741.484375 202 L 519 202 Z M 519 75 " clip-rule="nonzero"/></clipPath></defs><g clip-path="url(#19e394c188)"><path fill="#d67643" d="M 75.847656 75.050781 L 75.847656 167.492188 C 77.460938 169.425781 78.90625 171.515625 80.742188 173.238281 C 85.4375 177.628906 92.652344 179.101562 98.6875 176.902344 C 104.667969 174.726562 110.117188 169.222656 116.304688 170.707031 C 120.65625 171.75 123.394531 175.910156 126.835938 178.777344 C 133.851562 184.621094 144.988281 184.746094 152.132812 179.058594 C 154.570312 177.121094 156.535156 174.628906 159.039062 172.773438 C 165.261719 168.152344 174.621094 168.394531 180.601562 173.324219 C 189.523438 180.679688 190.601562 196.097656 201.351562 200.332031 C 206.28125 202.273438 212.070312 201.046875 216.460938 198.074219 C 220.851562 195.105469 224 190.597656 226.359375 185.84375 C 229.175781 180.164062 231.789062 173.257812 237.859375 171.457031 C 246.152344 168.996094 253.339844 177.949219 261.796875 179.761719 C 266.242188 180.714844 271.101562 179.515625 274.597656 176.601562 C 278.863281 173.042969 281.921875 166.972656 287.207031 165.273438 C 291.878906 163.765625 294.757812 165.339844 298.332031 167.445312 L 298.332031 75.050781 L 75.847656 75.050781 " fill-opacity="1" fill-rule="nonzero"/></g><g clip-path="url(#29ef4f11c8)"><path fill="#d67643" d="M 297.273438 75.050781 L 297.273438 167.492188 C 298.890625 169.425781 300.332031 171.515625 302.171875 173.238281 C 306.867188 177.628906 314.078125 179.101562 320.113281 176.902344 C 326.09375 174.726562 331.546875 169.222656 337.730469 170.707031 C 342.082031 171.75 344.820312 175.910156 348.261719 178.777344 C 355.277344 184.621094 366.414062 184.746094 373.558594 179.058594 C 375.996094 177.121094 377.964844 174.628906 380.464844 172.773438 C 386.691406 168.152344 396.050781 168.394531 402.03125 173.324219 C 410.949219 180.679688 412.027344 196.097656 422.777344 200.332031 C 427.707031 202.273438 433.496094 201.046875 437.886719 198.074219 C 442.277344 195.105469 445.425781 190.597656 447.785156 185.84375 C 450.605469 180.164062 453.214844 173.257812 459.285156 171.457031 C 467.578125 168.996094 474.765625 177.949219 483.222656 179.761719 C 487.671875 180.714844 492.527344 179.515625 496.027344 176.601562 C 500.292969 173.042969 503.351562 166.972656 508.632812 165.273438 C 513.308594 163.765625 516.183594 165.339844 519.757812 167.445312 L 519.757812 75.050781 L 297.273438 75.050781 " fill-opacity="1" fill-rule="nonzero"/></g><g clip-path="url(#410484e526)"><path fill="#d67643" d="M 519 75.050781 L 519 167.492188 C 520.617188 169.425781 522.058594 171.515625 523.898438 173.238281 C 528.59375 177.628906 535.804688 179.101562 541.84375 176.902344 C 547.820312 174.726562 553.273438 169.222656 559.460938 170.707031 C 563.808594 171.75 566.546875 175.910156 569.988281 178.777344 C 577.003906 184.621094 588.140625 184.746094 595.285156 179.058594 C 597.722656 177.121094 599.691406 174.628906 602.191406 172.773438 C 608.417969 168.152344 617.777344 168.394531 623.757812 173.324219 C 632.675781 180.679688 633.753906 196.097656 644.503906 200.332031 C 649.4375 202.273438 655.226562 201.046875 659.617188 198.074219 C 664.007812 195.105469 667.15625 190.597656 669.511719 185.84375 C 672.332031 180.164062 674.941406 173.257812 681.011719 171.457031 C 689.304688 168.996094 696.492188 177.949219 704.949219 179.761719 C 709.398438 180.714844 714.253906 179.515625 717.753906 176.601562 C 722.019531 173.042969 725.078125 166.972656 730.363281 165.273438 C 735.035156 163.765625 737.910156 165.339844 741.484375 167.445312 L 741.484375 75.050781 L 519 75.050781 " fill-opacity="1" fill-rule="nonzero"/></g></svg>