<svg xmlns="http://www.w3.org/2000/svg" xmlns:xlink="http://www.w3.org/1999/xlink" width="1221" zoomAndPan="magnify" viewBox="0 0 915.75 474.749983" height="633" preserveAspectRatio="xMidYMid meet" version="1.0"><defs><g/><clipPath id="677befe209"><path d="M 198 243.929688 L 511 243.929688 L 511 397 L 198 397 Z M 198 243.929688 " clip-rule="nonzero"/></clipPath></defs><g fill="#fff2d5" fill-opacity="1"><g transform="translate(439.473404, 218.563338)"><g><path d="M 68.640625 -42 C 77.429688 -37.988281 83.722656 -33.15625 87.515625 -27.5 C 91.304688 -21.84375 91.6875 -15.6875 88.65625 -9.03125 C 87.5 -6.5 85.726562 -3.835938 83.34375 -1.046875 L 71.40625 12.640625 C 71.195312 12.898438 70.988281 13.265625 70.78125 13.734375 C 70.21875 14.953125 70.4375 15.789062 71.4375 16.25 C 72.351562 16.664062 73.320312 16.617188 74.34375 16.109375 C 75.363281 15.597656 75.984375 15.394531 76.203125 15.5 C 76.597656 15.675781 76.804688 16.09375 76.828125 16.75 C 76.847656 17.40625 76.703125 18.078125 76.390625 18.765625 C 75.515625 20.878906 73.765625 22.628906 71.140625 24.015625 C 68.515625 25.410156 65.515625 26.164062 62.140625 26.28125 C 58.765625 26.394531 55.429688 25.703125 52.140625 24.203125 C 48.171875 22.390625 45.101562 20.113281 42.9375 17.375 C 40.769531 14.632812 39.796875 11.601562 40.015625 8.28125 C 36.460938 9.988281 32.773438 10.867188 28.953125 10.921875 C 25.140625 10.984375 21.441406 10.195312 17.859375 8.5625 C 13.796875 6.707031 10.742188 4.367188 8.703125 1.546875 C 6.671875 -1.273438 5.550781 -4.234375 5.34375 -7.328125 C 5.144531 -10.421875 5.675781 -13.347656 6.9375 -16.109375 C 7.488281 -17.328125 8.144531 -18.457031 8.90625 -19.5 C 12.519531 -24.207031 16.984375 -26.96875 22.296875 -27.78125 C 27.609375 -28.59375 33.097656 -27.707031 38.765625 -25.125 C 45.109375 -22.226562 50.890625 -18.394531 56.109375 -13.625 L 62.4375 -19.875 C 64.882812 -22.632812 66.507812 -24.894531 67.3125 -26.65625 C 68.070312 -28.519531 68.085938 -30.175781 67.359375 -31.625 C 66.640625 -33.070312 65.09375 -34.335938 62.71875 -35.421875 C 62.625 -33.972656 62.28125 -32.601562 61.6875 -31.3125 C 60.394531 -28.476562 58.207031 -26.515625 55.125 -25.421875 C 52.039062 -24.335938 48.507812 -24.703125 44.53125 -26.515625 C 40.78125 -28.222656 38.226562 -30.378906 36.875 -32.984375 C 35.519531 -35.597656 35.398438 -38.125 36.515625 -40.5625 C 38.265625 -44.394531 41.859375 -46.59375 47.296875 -47.15625 C 52.734375 -47.726562 59.847656 -46.007812 68.640625 -42 Z M 46.359375 -10.171875 C 44.210938 -11.140625 42.09375 -11.109375 40 -10.078125 C 37.914062 -9.054688 36.4375 -7.585938 35.5625 -5.671875 C 35.007812 -4.453125 34.84375 -3.328125 35.0625 -2.296875 C 35.289062 -1.265625 35.941406 -0.503906 37.015625 -0.015625 C 38.003906 0.441406 39.273438 0.535156 40.828125 0.265625 C 42.378906 0.00390625 43.785156 -0.804688 45.046875 -2.171875 L 50.546875 -7.84375 C 49.359375 -8.65625 47.960938 -9.429688 46.359375 -10.171875 Z M 46.359375 -10.171875 "/></g></g></g><g fill="#fff2d5" fill-opacity="1"><g transform="translate(524.357101, 255.465387)"><g><path d="M 53.53125 -58.78125 C 60.375 -57.46875 66.175781 -55.707031 70.9375 -53.5 C 75.707031 -51.300781 79.210938 -48.828125 81.453125 -46.078125 C 83.703125 -43.335938 84.5625 -40.566406 84.03125 -37.765625 C 83.46875 -34.878906 81.875 -32.75 79.25 -31.375 C 76.632812 -30 73.304688 -29.703125 69.265625 -30.484375 C 65.148438 -31.273438 61.863281 -32.972656 59.40625 -35.578125 C 56.957031 -38.179688 56.035156 -41.054688 56.640625 -44.203125 C 56.847656 -45.265625 57.207031 -46.257812 57.71875 -47.1875 C 56.320312 -47.882812 55.046875 -48.347656 53.890625 -48.578125 C 51.816406 -48.972656 50.003906 -48.804688 48.453125 -48.078125 C 46.898438 -47.347656 45.992188 -46.0625 45.734375 -44.21875 C 45.316406 -42.082031 46.035156 -40.0625 47.890625 -38.15625 C 49.753906 -36.257812 52.867188 -33.738281 57.234375 -30.59375 C 61.015625 -27.988281 64.097656 -25.664062 66.484375 -23.625 C 68.867188 -21.582031 70.769531 -19.222656 72.1875 -16.546875 C 73.601562 -13.878906 74.007812 -10.976562 73.40625 -7.84375 C 73.28125 -7.175781 72.875 -5.972656 72.1875 -4.234375 C 69.8125 1.046875 65.300781 4.710938 58.65625 6.765625 C 52.007812 8.828125 43.773438 8.914062 33.953125 7.03125 C 22.898438 4.90625 14.414062 1.738281 8.5 -2.46875 C 2.59375 -6.6875 0.132812 -11.394531 1.125 -16.59375 C 1.8125 -20.144531 3.398438 -22.617188 5.890625 -24.015625 C 8.390625 -25.421875 11.414062 -25.785156 14.96875 -25.109375 C 19.09375 -24.316406 22.375 -22.359375 24.8125 -19.234375 C 27.257812 -16.109375 28.097656 -12.5625 27.328125 -8.59375 C 27.128906 -7.53125 26.789062 -6.445312 26.3125 -5.34375 C 28.195312 -4.46875 30.050781 -3.851562 31.875 -3.5 C 34.019531 -3.082031 35.90625 -3.316406 37.53125 -4.203125 C 39.15625 -5.097656 40.164062 -6.578125 40.5625 -8.640625 C 40.84375 -10.546875 40.207031 -12.351562 38.65625 -14.0625 C 37.101562 -15.78125 34.523438 -17.96875 30.921875 -20.625 C 27.535156 -23.082031 24.789062 -25.300781 22.6875 -27.28125 C 20.582031 -29.269531 18.910156 -31.578125 17.671875 -34.203125 C 16.429688 -36.835938 16.113281 -39.726562 16.71875 -42.875 C 18.007812 -49.632812 21.867188 -54.472656 28.296875 -57.390625 C 34.722656 -60.316406 43.132812 -60.78125 53.53125 -58.78125 Z M 53.53125 -58.78125 "/></g></g></g><g fill="#fff2d5" fill-opacity="1"><g transform="translate(606.347359, 269.352897)"><g><path d="M 55.953125 -65.40625 C 57.546875 -65.414062 58.785156 -65.085938 59.671875 -64.421875 C 60.566406 -63.753906 61.019531 -62.832031 61.03125 -61.65625 C 61.03125 -61.3125 60.941406 -60.722656 60.765625 -59.890625 C 59.710938 -56.191406 57.207031 -54.328125 53.25 -54.296875 L 45.9375 -54.25 L 36.671875 -23.046875 C 36.265625 -21.773438 36.0625 -20.46875 36.0625 -19.125 C 36.070312 -17.613281 36.5 -16.566406 37.34375 -15.984375 C 38.1875 -15.398438 39.363281 -15.113281 40.875 -15.125 C 42.226562 -15.132812 43.910156 -15.3125 45.921875 -15.65625 C 46.929688 -15.925781 47.816406 -16.0625 48.578125 -16.0625 C 49.160156 -16.070312 49.597656 -15.882812 49.890625 -15.5 C 50.191406 -15.125 50.347656 -14.644531 50.359375 -14.0625 C 50.453125 -12.375 49.21875 -10.320312 46.65625 -7.90625 C 44.101562 -5.5 40.644531 -3.421875 36.28125 -1.671875 C 31.925781 0.078125 27.101562 0.96875 21.8125 1 C 16.09375 1.039062 11.503906 -0.226562 8.046875 -2.8125 C 4.585938 -5.40625 2.847656 -8.96875 2.828125 -13.5 C 2.804688 -15.601562 3.125 -17.628906 3.78125 -19.578125 L 11.703125 -44.578125 C 12.109375 -46.015625 12.3125 -47.148438 12.3125 -47.984375 C 12.300781 -49.671875 11.894531 -51.097656 11.09375 -52.265625 C 10.289062 -53.441406 9.164062 -54.65625 7.71875 -55.90625 C 6.445312 -57.070312 5.554688 -58.050781 5.046875 -58.84375 C 4.546875 -59.644531 4.414062 -60.59375 4.65625 -61.6875 C 4.988281 -62.78125 5.695312 -63.625 6.78125 -64.21875 C 7.875 -64.820312 9.597656 -65.128906 11.953125 -65.140625 L 19.015625 -65.1875 L 26.90625 -73.171875 C 29.65625 -75.960938 32.179688 -77.910156 34.484375 -79.015625 C 36.796875 -80.117188 39.800781 -80.679688 43.5 -80.703125 C 48.789062 -80.742188 51.445312 -78.75 51.46875 -74.71875 C 51.476562 -73.457031 51.320312 -72.273438 51 -71.171875 L 49.265625 -65.375 Z M 55.953125 -65.40625 "/></g></g></g><g fill="#fff2d5" fill-opacity="1"><g transform="translate(667.355797, 268.141561)"><g><path d="M 22.140625 -71.125 C 26.953125 -71.894531 30.625 -71.546875 33.15625 -70.078125 C 35.695312 -68.609375 37.222656 -66.300781 37.734375 -63.15625 C 38.046875 -61.25 38.039062 -59.378906 37.71875 -57.546875 L 32.28125 -18.46875 C 32.1875 -17.4375 32.203125 -16.546875 32.328125 -15.796875 C 32.492188 -14.722656 32.832031 -13.90625 33.34375 -13.34375 C 33.851562 -12.789062 34.535156 -12.28125 35.390625 -11.8125 C 36.046875 -11.332031 36.53125 -10.925781 36.84375 -10.59375 C 37.164062 -10.257812 37.289062 -9.785156 37.21875 -9.171875 C 36.96875 -8.035156 36.257812 -7.113281 35.09375 -6.40625 C 33.9375 -5.707031 32.070312 -5.15625 29.5 -4.75 L 1.109375 -0.171875 C -1.035156 0.171875 -2.664062 0.0703125 -3.78125 -0.46875 C -4.894531 -1.007812 -5.378906 -1.894531 -5.234375 -3.125 C -5.054688 -4.175781 -4.320312 -5.191406 -3.03125 -6.171875 C -1.894531 -7.023438 -0.984375 -7.972656 -0.296875 -9.015625 C 0.378906 -10.066406 0.847656 -11.628906 1.109375 -13.703125 L 6.15625 -51.421875 C 6.28125 -52.222656 6.304688 -52.867188 6.234375 -53.359375 C 6.078125 -54.273438 5.75 -54.96875 5.25 -55.4375 C 4.75 -55.90625 4.035156 -56.363281 3.109375 -56.8125 C 2.179688 -57.34375 1.507812 -57.832031 1.09375 -58.28125 C 0.675781 -58.726562 0.523438 -59.382812 0.640625 -60.25 C 0.835938 -62.238281 3.179688 -64.34375 7.671875 -66.5625 C 12.171875 -68.78125 16.992188 -70.300781 22.140625 -71.125 Z M 26.0625 -99.96875 C 29.289062 -100.488281 32.15625 -99.863281 34.65625 -98.09375 C 37.15625 -96.320312 38.648438 -93.90625 39.140625 -90.84375 C 39.492188 -88.6875 39.273438 -86.476562 38.484375 -84.21875 C 37.703125 -81.957031 36.398438 -80.019531 34.578125 -78.40625 C 32.753906 -76.789062 30.59375 -75.785156 28.09375 -75.390625 C 24.945312 -74.878906 22.140625 -75.515625 19.671875 -77.296875 C 17.210938 -79.078125 15.691406 -81.53125 15.109375 -84.65625 C 14.773438 -86.726562 14.984375 -88.867188 15.734375 -91.078125 C 16.484375 -93.296875 17.742188 -95.226562 19.515625 -96.875 C 21.296875 -98.519531 23.476562 -99.550781 26.0625 -99.96875 Z M 26.0625 -99.96875 "/></g></g></g><g fill="#fff2d5" fill-opacity="1"><g transform="translate(720.58168, 259.876902)"><g><path d="M 21.171875 -78.609375 C 26.015625 -80.285156 30.503906 -81.0625 34.640625 -80.9375 C 38.773438 -80.820312 42.273438 -79.898438 45.140625 -78.171875 C 48.003906 -76.453125 49.941406 -74.125 50.953125 -71.1875 C 52.054688 -68.007812 51.875 -65.007812 50.40625 -62.1875 C 48.945312 -59.363281 46.351562 -57.304688 42.625 -56.015625 C 38.8125 -54.691406 35.492188 -54.628906 32.671875 -55.828125 C 29.847656 -57.035156 27.859375 -59.3125 26.703125 -62.65625 C 26.148438 -64.238281 25.8125 -65.984375 25.6875 -67.890625 C 22.65625 -65.867188 20.296875 -63.117188 18.609375 -59.640625 C 16.921875 -56.160156 16.367188 -52.164062 16.953125 -47.65625 C 17.304688 -45.113281 17.816406 -42.890625 18.484375 -40.984375 C 19.972656 -36.691406 22.289062 -33.847656 25.4375 -32.453125 C 28.59375 -31.054688 32.394531 -31.128906 36.84375 -32.671875 C 39.382812 -33.546875 41.476562 -34.554688 43.125 -35.703125 C 44.769531 -36.859375 46.394531 -38.207031 48 -39.75 C 49.3125 -41.082031 50.328125 -41.875 51.046875 -42.125 C 51.515625 -42.289062 51.863281 -42.300781 52.09375 -42.15625 C 52.320312 -42.019531 52.546875 -41.632812 52.765625 -41 C 53.867188 -38.082031 53.722656 -34.582031 52.328125 -30.5 C 50.941406 -26.425781 48.425781 -22.53125 44.78125 -18.8125 C 41.132812 -15.09375 36.570312 -12.285156 31.09375 -10.390625 C 25.375 -8.398438 19.945312 -7.691406 14.8125 -8.265625 C 9.675781 -8.847656 5.210938 -10.679688 1.421875 -13.765625 C -2.359375 -16.859375 -5.160156 -21.023438 -6.984375 -26.265625 C -7.835938 -28.722656 -8.46875 -31.578125 -8.875 -34.828125 C -10.144531 -45.410156 -7.972656 -54.476562 -2.359375 -62.03125 C 3.242188 -69.582031 11.085938 -75.109375 21.171875 -78.609375 Z M 21.171875 -78.609375 "/></g></g></g><g fill="#fff2d5" fill-opacity="1"><g transform="translate(791.189329, 233.455933)"><g><path d="M 1.09375 -29.53125 C 4.050781 -31.132812 7.082031 -31.484375 10.1875 -30.578125 C 13.300781 -29.679688 15.640625 -27.796875 17.203125 -24.921875 C 18.273438 -22.921875 18.796875 -20.671875 18.765625 -18.171875 C 18.742188 -15.671875 18.113281 -13.300781 16.875 -11.0625 C 15.644531 -8.820312 13.847656 -7.0625 11.484375 -5.78125 C 8.597656 -4.21875 5.617188 -3.894531 2.546875 -4.8125 C -0.523438 -5.738281 -2.875 -7.625 -4.5 -10.46875 C -5.582031 -12.46875 -6.125 -14.707031 -6.125 -17.1875 C -6.132812 -19.664062 -5.523438 -22.023438 -4.296875 -24.265625 C -3.066406 -26.503906 -1.269531 -28.257812 1.09375 -29.53125 Z M 1.09375 -29.53125 "/></g></g></g><g fill="#fff2d5" fill-opacity="1"><g transform="translate(151.314489, 291.101735)"><g><path d="M -13.234375 -105.59375 C -5.960938 -110.882812 0.289062 -113.75 5.53125 -114.1875 C 10.78125 -114.632812 14.566406 -113.253906 16.890625 -110.046875 C 18.765625 -107.472656 19.140625 -104.707031 18.015625 -101.75 C 16.890625 -98.800781 14.59375 -96.066406 11.125 -93.546875 C 7.9375 -91.222656 4.890625 -90.195312 1.984375 -90.46875 C -0.921875 -90.75 -3.210938 -92.046875 -4.890625 -94.359375 C -5.941406 -95.785156 -6.585938 -97.601562 -6.828125 -99.8125 C -8.867188 -98.320312 -10.210938 -96.585938 -10.859375 -94.609375 C -11.503906 -92.640625 -11.332031 -90.195312 -10.34375 -87.28125 C -9.65625 -85.476562 -8.84375 -83.929688 -7.90625 -82.640625 C -6.71875 -81.003906 -5.503906 -79.941406 -4.265625 -79.453125 C -3.023438 -78.960938 -1.859375 -79.113281 -0.765625 -79.90625 L 5.234375 -84.28125 C 8.773438 -86.851562 11.335938 -87.046875 12.921875 -84.859375 C 13.117188 -84.597656 13.347656 -84.148438 13.609375 -83.515625 C 14.273438 -81.710938 14.253906 -79.984375 13.546875 -78.328125 C 12.847656 -76.671875 11.238281 -74.925781 8.71875 -73.09375 L 5.65625 -70.859375 L 19.59375 -30.46875 C 19.988281 -29.507812 20.410156 -28.726562 20.859375 -28.125 C 21.503906 -27.238281 22.179688 -26.664062 22.890625 -26.40625 C 23.597656 -26.144531 24.429688 -26 25.390625 -25.96875 C 26.203125 -25.84375 26.820312 -25.695312 27.25 -25.53125 C 27.675781 -25.375 27.992188 -25.003906 28.203125 -24.421875 C 28.515625 -23.296875 28.304688 -22.15625 27.578125 -21 C 26.859375 -19.851562 25.445312 -18.515625 23.34375 -16.984375 L 0.09375 -0.078125 C -1.664062 1.210938 -3.160156 1.863281 -4.390625 1.875 C -5.628906 1.882812 -6.460938 1.320312 -6.890625 0.1875 C -7.210938 -0.832031 -7.019531 -2.070312 -6.3125 -3.53125 C -5.6875 -4.800781 -5.304688 -6.054688 -5.171875 -7.296875 C -5.035156 -8.546875 -5.320312 -10.15625 -6.03125 -12.125 L -17.0625 -44.03125 C -17.46875 -45.300781 -18.066406 -46.476562 -18.859375 -47.5625 C -19.847656 -48.914062 -20.914062 -49.769531 -22.0625 -50.125 C -23.207031 -50.488281 -24.707031 -50.726562 -26.5625 -50.84375 C -27.75 -50.914062 -28.6875 -51.035156 -29.375 -51.203125 C -30.070312 -51.378906 -30.644531 -51.769531 -31.09375 -52.375 C -32.101562 -53.613281 -32.3125 -54.863281 -31.71875 -56.125 C -31.132812 -57.394531 -29.445312 -59.039062 -26.65625 -61.0625 L -24.109375 -62.921875 C -25.816406 -64.265625 -27.289062 -65.789062 -28.53125 -67.5 C -29.769531 -69.195312 -30.75 -71.1875 -31.46875 -73.46875 C -32.695312 -77.875 -32.050781 -82.804688 -29.53125 -88.265625 C -27.019531 -93.734375 -21.585938 -99.507812 -13.234375 -105.59375 Z M -13.234375 -105.59375 "/></g></g></g><g fill="#fff2d5" fill-opacity="1"><g transform="translate(190.190263, 262.703813)"><g><path d="M -7.1875 -101.21875 C -2.863281 -103.457031 0.75 -104.289062 3.65625 -103.71875 C 6.5625 -103.144531 8.753906 -101.441406 10.234375 -98.609375 C 11.078125 -96.972656 11.640625 -95.234375 11.921875 -93.390625 L 23.953125 -27.1875 C 24.191406 -26.175781 24.488281 -25.335938 24.84375 -24.671875 C 25.34375 -23.703125 25.925781 -23.035156 26.59375 -22.671875 C 27.257812 -22.304688 28.066406 -22.035156 29.015625 -21.859375 C 29.796875 -21.609375 30.382812 -21.367188 30.78125 -21.140625 C 31.175781 -20.921875 31.4375 -20.515625 31.5625 -19.921875 C 31.6875 -18.753906 31.304688 -17.65625 30.421875 -16.625 C 29.535156 -15.601562 27.9375 -14.492188 25.625 -13.296875 L 0.109375 -0.0625 C -1.828125 0.945312 -3.40625 1.363281 -4.625 1.1875 C -5.851562 1.019531 -6.585938 0.335938 -6.828125 -0.859375 C -7.003906 -1.910156 -6.628906 -3.101562 -5.703125 -4.4375 C -4.898438 -5.601562 -4.335938 -6.789062 -4.015625 -8 C -3.691406 -9.21875 -3.734375 -10.851562 -4.140625 -12.90625 L -16.09375 -77.59375 C -16.21875 -78.375 -16.394531 -78.988281 -16.625 -79.4375 C -17.050781 -80.257812 -17.601562 -80.828125 -18.28125 -81.140625 C -18.96875 -81.453125 -19.78125 -81.691406 -20.71875 -81.859375 C -21.78125 -82.066406 -22.59375 -82.304688 -23.15625 -82.578125 C -23.71875 -82.847656 -24.082031 -83.414062 -24.25 -84.28125 C -24.695312 -86.226562 -23.117188 -88.9375 -19.515625 -92.40625 C -15.921875 -95.882812 -11.8125 -98.820312 -7.1875 -101.21875 Z M -7.1875 -101.21875 "/></g></g></g><g fill="#fff2d5" fill-opacity="1"><g transform="translate(225.086157, 241.97924)"><g><path d="M 24.59375 -76.609375 C 33.882812 -79.304688 41.8125 -79.75 48.375 -77.9375 C 54.9375 -76.132812 59.238281 -71.71875 61.28125 -64.6875 C 62.050781 -62.019531 62.445312 -58.851562 62.46875 -55.1875 L 62.359375 -37.046875 C 62.378906 -36.691406 62.457031 -36.269531 62.59375 -35.78125 C 62.96875 -34.488281 63.675781 -34 64.71875 -34.3125 C 65.695312 -34.59375 66.40625 -35.253906 66.84375 -36.296875 C 67.28125 -37.347656 67.617188 -37.910156 67.859375 -37.984375 C 68.273438 -38.097656 68.703125 -37.914062 69.140625 -37.4375 C 69.578125 -36.957031 69.90625 -36.351562 70.125 -35.625 C 70.84375 -33.457031 70.660156 -30.988281 69.578125 -28.21875 C 68.503906 -25.457031 66.722656 -22.929688 64.234375 -20.640625 C 61.753906 -18.347656 58.78125 -16.695312 55.3125 -15.6875 C 51.113281 -14.46875 47.296875 -14.1875 43.859375 -14.84375 C 40.429688 -15.507812 37.722656 -17.175781 35.734375 -19.84375 C 34.148438 -16.21875 31.929688 -13.140625 29.078125 -10.609375 C 26.234375 -8.078125 22.914062 -6.265625 19.125 -5.171875 C 14.84375 -3.921875 11.003906 -3.703125 7.609375 -4.515625 C 4.222656 -5.328125 1.445312 -6.835938 -0.71875 -9.046875 C -2.894531 -11.253906 -4.40625 -13.8125 -5.25 -16.71875 C -5.625 -18.007812 -5.867188 -19.296875 -5.984375 -20.578125 C -6.304688 -26.515625 -4.71875 -31.523438 -1.21875 -35.609375 C 2.269531 -39.691406 7.003906 -42.601562 12.984375 -44.34375 C 19.671875 -46.289062 26.546875 -47.15625 33.609375 -46.9375 L 34.328125 -55.796875 C 34.378906 -59.492188 34.132812 -62.269531 33.59375 -64.125 C 32.957031 -66.03125 31.890625 -67.296875 30.390625 -67.921875 C 28.898438 -68.546875 26.90625 -68.492188 24.40625 -67.765625 C 25.269531 -66.609375 25.90625 -65.34375 26.3125 -63.96875 C 27.175781 -60.976562 26.796875 -58.066406 25.171875 -55.234375 C 23.546875 -52.398438 20.632812 -50.375 16.4375 -49.15625 C 12.488281 -48.007812 9.148438 -47.976562 6.421875 -49.0625 C 3.691406 -50.15625 1.953125 -51.992188 1.203125 -54.578125 C 0.0234375 -58.609375 1.304688 -62.613281 5.046875 -66.59375 C 8.796875 -70.570312 15.3125 -73.910156 24.59375 -76.609375 Z M 28.484375 -37.953125 C 26.222656 -37.296875 24.640625 -35.894531 23.734375 -33.75 C 22.828125 -31.601562 22.664062 -29.519531 23.25 -27.5 C 23.625 -26.207031 24.226562 -25.242188 25.0625 -24.609375 C 25.90625 -23.984375 26.890625 -23.832031 28.015625 -24.15625 C 29.066406 -24.46875 30.09375 -25.226562 31.09375 -26.4375 C 32.101562 -27.644531 32.648438 -29.175781 32.734375 -31.03125 L 33.1875 -38.921875 C 31.75 -38.765625 30.179688 -38.441406 28.484375 -37.953125 Z M 28.484375 -37.953125 "/></g></g></g><g fill="#fff2d5" fill-opacity="1"><g transform="translate(296.331037, 219.662116)"><g><path d="M 77.65625 -19.078125 C 77.5 -18.734375 77.425781 -18.226562 77.4375 -17.5625 C 77.445312 -16.96875 77.601562 -16.503906 77.90625 -16.171875 C 78.207031 -15.847656 78.609375 -15.691406 79.109375 -15.703125 C 80.117188 -15.722656 80.96875 -16.179688 81.65625 -17.078125 C 82.351562 -17.972656 82.832031 -18.425781 83.09375 -18.4375 C 83.507812 -18.445312 83.847656 -18.179688 84.109375 -17.640625 C 84.367188 -17.097656 84.507812 -16.453125 84.53125 -15.703125 C 84.675781 -13.265625 83.929688 -10.867188 82.296875 -8.515625 C 80.660156 -6.171875 78.238281 -4.226562 75.03125 -2.6875 C 71.832031 -1.144531 67.96875 -0.320312 63.4375 -0.21875 C 57.882812 -0.101562 53.441406 -1.289062 50.109375 -3.78125 C 46.773438 -6.28125 45.019531 -9.671875 44.84375 -13.953125 C 44.78125 -17.066406 45.460938 -20.570312 46.890625 -24.46875 L 53.4375 -42.765625 C 53.820312 -43.867188 54.007812 -44.753906 54 -45.421875 C 53.976562 -46.515625 53.601562 -47.367188 52.875 -47.984375 C 52.144531 -48.597656 51.273438 -48.894531 50.265625 -48.875 C 48.421875 -48.832031 46.675781 -47.929688 45.03125 -46.171875 C 43.382812 -44.410156 42.210938 -42.257812 41.515625 -39.71875 L 34.25 -13.859375 C 33.9375 -12.921875 33.789062 -12.035156 33.8125 -11.203125 C 33.832031 -10.191406 34.054688 -9.375 34.484375 -8.75 C 34.910156 -8.132812 35.515625 -7.492188 36.296875 -6.828125 C 36.890625 -6.335938 37.316406 -5.882812 37.578125 -5.46875 C 37.835938 -5.050781 37.894531 -4.550781 37.75 -3.96875 C 37.425781 -2.863281 36.640625 -2.046875 35.390625 -1.515625 C 34.140625 -0.984375 32.175781 -0.691406 29.5 -0.640625 L 0.75 -0.015625 C -1.425781 0.0234375 -3.003906 -0.296875 -3.984375 -0.984375 C -4.972656 -1.679688 -5.351562 -2.617188 -5.125 -3.796875 C -4.800781 -4.816406 -3.9375 -5.722656 -2.53125 -6.515625 C -1.28125 -7.203125 -0.25 -8.019531 0.5625 -8.96875 C 1.382812 -9.914062 2.070312 -11.398438 2.625 -13.421875 L 13.046875 -50.078125 C 13.210938 -50.515625 13.285156 -51.109375 13.265625 -51.859375 C 13.242188 -52.785156 13.035156 -53.492188 12.640625 -53.984375 C 12.253906 -54.484375 11.640625 -55.097656 10.796875 -55.828125 C 9.929688 -56.492188 9.320312 -57.070312 8.96875 -57.5625 C 8.625 -58.0625 8.570312 -58.734375 8.8125 -59.578125 C 9.269531 -61.523438 11.878906 -63.285156 16.640625 -64.859375 C 21.398438 -66.441406 26.378906 -67.285156 31.578125 -67.390625 C 35.785156 -67.484375 39.132812 -66.398438 41.625 -64.140625 C 44.113281 -61.878906 45.269531 -58.6875 45.09375 -54.5625 C 48.4375 -59.59375 52.019531 -63.097656 55.84375 -65.078125 C 59.675781 -67.054688 63.859375 -68.09375 68.390625 -68.1875 C 73.515625 -68.300781 77.6875 -66.832031 80.90625 -63.78125 C 84.132812 -60.738281 85.800781 -56.738281 85.90625 -51.78125 C 85.96875 -49.175781 85.601562 -46.601562 84.8125 -44.0625 Z M 77.65625 -19.078125 "/></g></g></g><g fill="#fff2d5" fill-opacity="1"><g transform="translate(379.822075, 219.103337)"><g><path d="M 68.046875 -52.71875 C 69.609375 -52.40625 70.753906 -51.832031 71.484375 -51 C 72.222656 -50.164062 72.472656 -49.175781 72.234375 -48.03125 C 72.171875 -47.6875 71.972656 -47.125 71.640625 -46.34375 C 69.847656 -42.9375 67.007812 -41.617188 63.125 -42.390625 L 55.953125 -43.828125 L 40.578125 -15.140625 C 39.921875 -13.984375 39.460938 -12.742188 39.203125 -11.421875 C 38.898438 -9.941406 39.101562 -8.828125 39.8125 -8.078125 C 40.519531 -7.335938 41.613281 -6.820312 43.09375 -6.53125 C 44.414062 -6.257812 46.097656 -6.097656 48.140625 -6.046875 C 49.179688 -6.085938 50.070312 -6.035156 50.8125 -5.890625 C 51.382812 -5.773438 51.78125 -5.503906 52 -5.078125 C 52.21875 -4.648438 52.269531 -4.148438 52.15625 -3.578125 C 51.90625 -1.898438 50.285156 -0.140625 47.296875 1.703125 C 44.316406 3.546875 40.515625 4.882812 35.890625 5.71875 C 31.265625 6.550781 26.359375 6.445312 21.171875 5.40625 C 15.554688 4.28125 11.316406 2.101562 8.453125 -1.125 C 5.585938 -4.363281 4.601562 -8.203125 5.5 -12.640625 C 5.90625 -14.703125 6.628906 -16.625 7.671875 -18.40625 L 20.484375 -41.28125 C 21.179688 -42.601562 21.609375 -43.671875 21.765625 -44.484375 C 22.097656 -46.140625 21.988281 -47.625 21.4375 -48.9375 C 20.882812 -50.257812 20.03125 -51.675781 18.875 -53.1875 C 17.863281 -54.582031 17.191406 -55.71875 16.859375 -56.59375 C 16.523438 -57.476562 16.59375 -58.4375 17.0625 -59.46875 C 17.601562 -60.46875 18.46875 -61.148438 19.65625 -61.515625 C 20.84375 -61.878906 22.59375 -61.832031 24.90625 -61.375 L 31.828125 -59.984375 L 41.171875 -66.203125 C 44.429688 -68.378906 47.300781 -69.773438 49.78125 -70.390625 C 52.257812 -71.015625 55.3125 -70.960938 58.9375 -70.234375 C 64.125 -69.191406 66.320312 -66.691406 65.53125 -62.734375 C 65.28125 -61.503906 64.890625 -60.382812 64.359375 -59.375 L 61.484375 -54.046875 Z M 68.046875 -52.71875 "/></g></g></g><path fill="#ffe0da" d="M 354.074219 393.550781 C 335.152344 393.550781 316.167969 391.878906 297.609375 388.589844 C 268.253906 383.386719 246.652344 375.65625 229.617188 364.210938 C 210.332031 351.304688 194.570312 328.167969 202.816406 305.644531 C 210.910156 283.578125 236.1875 271.554688 254.503906 264.398438 C 278.230469 255.175781 305.003906 249.425781 334.148438 247.324219 C 340.476562 246.867188 346.925781 246.625 353.28125 246.59375 C 379.445312 246.59375 405.152344 250.03125 429.761719 256.820312 C 443.300781 260.566406 454.527344 264.675781 464.109375 269.390625 C 476.398438 275.417969 486.042969 282.421875 493.617188 290.730469 C 501.222656 299.039062 505.878906 309.417969 506.699219 319.890625 C 507.582031 331 504.296875 341.410156 497.148438 350.023438 C 482.058594 368.167969 457.265625 376.839844 437.367188 382.351562 C 410.71875 389.777344 382.667969 393.550781 354.074219 393.550781 Z M 354.074219 393.550781 " fill-opacity="1" fill-rule="nonzero"/><path fill="#ffffff" d="M 358.546875 252.679688 C 343.914062 252.773438 327.757812 255.054688 314.222656 258.980469 C 294.417969 264.734375 286.628906 271.917969 283.585938 276.910156 L 283.554688 276.972656 L 283.464844 277.003906 C 283.3125 277.09375 283.191406 277.183594 283.097656 277.367188 C 279.175781 284.277344 276.46875 291.824219 273.578125 300.257812 L 273 301.960938 C 272.359375 303.789062 271.722656 305.644531 271.082031 307.5 L 271.023438 307.683594 L 270.839844 307.714844 C 265.363281 308.566406 258.488281 310.179688 253.984375 315.019531 C 251.523438 317.699219 250.183594 321.59375 250.488281 325.246094 C 250.730469 328.046875 251.949219 330.390625 253.957031 331.882812 C 255.566406 333.101562 256.90625 333.648438 258.578125 334.320312 C 260.070312 334.925781 261.773438 335.597656 264.148438 336.90625 C 270.019531 340.164062 273.242188 344.820312 274.792969 347.074219 C 275.039062 347.40625 275.21875 347.710938 275.402344 347.925781 C 282.671875 357.695312 320.0625 372.488281 359.851562 372.488281 C 377.496094 372.488281 393.4375 369.628906 407.25 363.964844 C 414.035156 361.195312 419.84375 357.816406 431.464844 351.089844 C 452.367188 338.945312 456.777344 333.710938 457.660156 328.292969 C 457.691406 328.078125 457.71875 327.835938 457.71875 327.835938 C 458.601562 321.109375 455.226562 315.445312 453.765625 313.042969 L 453.734375 312.980469 C 450.539062 307.652344 446.21875 304.425781 443.179688 302.632812 L 443.058594 302.570312 L 443.027344 302.449219 C 440.988281 294.65625 438.25 287.109375 434.875 280.046875 C 430.734375 269.179688 416.316406 262.695312 404.9375 259.195312 C 391.675781 255.117188 374.636719 252.679688 359.335938 252.679688 C 359.0625 252.679688 358.820312 252.679688 358.546875 252.679688 Z M 358.546875 252.679688 " fill-opacity="1" fill-rule="nonzero"/><path fill="#ffffff" d="M 497.601562 336.601562 C 497.328125 336.601562 496.933594 336.691406 496.628906 337.117188 C 486.46875 351.332031 472.382812 361.957031 455.863281 367.832031 C 455.164062 368.074219 455.011719 368.714844 455.074219 369.203125 C 455.164062 369.65625 455.46875 370.144531 456.015625 370.144531 C 456.136719 370.144531 456.257812 370.113281 456.410156 370.085938 C 473.476562 363.996094 488.082031 353.007812 498.605469 338.277344 C 498.851562 337.941406 498.878906 337.605469 498.726562 337.300781 C 498.546875 336.875 498.058594 336.601562 497.601562 336.601562 Z M 497.601562 336.601562 " fill-opacity="1" fill-rule="nonzero"/><path fill="#ffffff" d="M 453.550781 340.863281 C 453.066406 340.863281 452.640625 341.199219 452.457031 341.746094 C 451.910156 343.175781 451.363281 344.636719 450.8125 346.097656 C 450.722656 346.34375 450.753906 346.617188 450.90625 346.890625 C 451.058594 347.195312 451.332031 347.4375 451.636719 347.5 C 451.757812 347.527344 451.847656 347.558594 451.96875 347.558594 C 452.457031 347.558594 452.882812 347.222656 453.066406 346.675781 C 453.613281 345.277344 454.128906 343.847656 454.679688 342.445312 L 454.707031 342.324219 C 454.800781 342.082031 454.769531 341.804688 454.617188 341.53125 C 454.464844 341.226562 454.191406 341.015625 453.886719 340.921875 C 453.765625 340.894531 453.644531 340.863281 453.550781 340.863281 Z M 453.550781 340.863281 " fill-opacity="1" fill-rule="nonzero"/><path fill="#ffffff" d="M 260.433594 342.261719 C 260.101562 342.261719 259.644531 342.386719 259.492188 342.78125 L 258.671875 344.699219 C 258.425781 345.246094 258.457031 345.945312 259.066406 346.28125 C 259.21875 346.371094 259.429688 346.433594 259.644531 346.433594 C 259.980469 346.433594 260.433594 346.3125 260.585938 345.914062 L 261.410156 344 C 261.621094 343.480469 261.652344 342.78125 261.011719 342.414062 C 260.859375 342.292969 260.648438 342.261719 260.433594 342.261719 Z M 260.433594 342.261719 " fill-opacity="1" fill-rule="nonzero"/><path fill="#ffffff" d="M 252.007812 340.34375 C 251.582031 340.34375 251.1875 340.558594 251.035156 340.894531 L 249.664062 343.632812 C 249.363281 344.210938 249.515625 344.878906 250.0625 345.214844 C 250.214844 345.308594 250.425781 345.367188 250.640625 345.367188 C 251.066406 345.367188 251.460938 345.15625 251.613281 344.820312 L 252.980469 342.082031 C 253.285156 341.503906 253.105469 340.800781 252.585938 340.496094 C 252.402344 340.375 252.191406 340.34375 252.007812 340.34375 Z M 252.007812 340.34375 " fill-opacity="1" fill-rule="nonzero"/><path fill="#ffffff" d="M 461.734375 331.914062 C 461.402344 331.914062 461.097656 332.035156 460.914062 332.25 C 460.730469 332.429688 460.640625 332.707031 460.640625 333.039062 C 460.671875 334.257812 460.457031 335.476562 460 336.511719 C 459.757812 337.058594 459.789062 337.757812 460.398438 338.09375 C 460.550781 338.183594 460.761719 338.246094 460.976562 338.246094 C 461.308594 338.246094 461.765625 338.125 461.917969 337.726562 C 462.617188 336.144531 462.921875 334.59375 462.890625 333.007812 C 462.890625 332.25 462.285156 331.914062 461.734375 331.914062 Z M 461.734375 331.914062 " fill-opacity="1" fill-rule="nonzero"/><path fill="#ffffff" d="M 273.761719 263.945312 C 273.667969 263.945312 273.546875 263.945312 273.457031 263.972656 C 251.371094 269.300781 231.015625 280.53125 214.679688 296.421875 C 214.222656 296.878906 214.316406 297.335938 214.40625 297.578125 C 214.589844 298.035156 215.078125 298.402344 215.5625 298.402344 C 215.835938 298.402344 216.109375 298.277344 216.324219 298.066406 C 232.324219 282.480469 252.28125 271.433594 274.09375 266.195312 C 274.765625 266.011719 274.914062 265.496094 274.886719 265.039062 C 274.792969 264.492188 274.398438 263.945312 273.761719 263.945312 Z M 273.761719 263.945312 " fill-opacity="1" fill-rule="nonzero"/><path fill="#ffe078" d="M 357.265625 353.554688 C 334.785156 353.554688 312.335938 348.441406 292.316406 338.730469 C 284.378906 334.867188 276.773438 330.363281 269.714844 325.277344 L 269.53125 325.15625 L 269.59375 324.941406 C 270.871094 321.167969 271.964844 317.210938 273.03125 313.40625 C 274.09375 309.632812 275.191406 305.738281 276.4375 301.960938 C 277.714844 298.1875 279.113281 294.382812 280.484375 290.730469 C 280.757812 289.96875 281.667969 287.5625 281.667969 287.5625 L 281.914062 288.476562 C 282.1875 289.421875 282.492188 290.335938 282.855469 291.1875 C 286.507812 300.46875 296.972656 307.5625 313.976562 312.25 C 331.804688 317.179688 350.695312 317.699219 357.996094 317.699219 C 358.847656 317.699219 359.730469 317.699219 360.554688 317.667969 C 387.8125 317.242188 430.28125 309.632812 435.574219 290.363281 L 435.847656 289.421875 L 436.152344 290.363281 C 440.257812 302.449219 442.84375 314.503906 443.847656 326.160156 L 443.878906 326.34375 L 443.726562 326.433594 C 431.070312 335.261719 417.136719 342.082031 402.320312 346.707031 C 387.71875 351.242188 372.570312 353.554688 357.265625 353.554688 Z M 357.265625 353.554688 " fill-opacity="1" fill-rule="nonzero"/><path fill="#ffffff" d="M 413.515625 325.492188 C 412.96875 325.492188 412.453125 325.765625 412.238281 326.222656 C 412.085938 326.554688 411.90625 326.859375 411.691406 327.226562 C 411.234375 328.019531 410.75 328.871094 410.628906 329.660156 C 410.476562 330.363281 410.71875 330.96875 411.265625 331.304688 C 411.480469 331.425781 411.722656 331.488281 411.996094 331.488281 C 412.390625 331.488281 412.757812 331.335938 412.96875 331.09375 C 413.609375 330.421875 414.003906 329.507812 414.398438 328.625 C 414.519531 328.351562 414.644531 328.078125 414.765625 327.804688 C 415.097656 327.136719 415.007812 326.191406 414.246094 325.734375 C 414.035156 325.550781 413.792969 325.492188 413.515625 325.492188 Z M 413.515625 325.492188 " fill-opacity="1" fill-rule="nonzero"/><path fill="#ffffff" d="M 424.378906 324.488281 C 423.859375 324.488281 423.40625 324.730469 423.191406 325.15625 C 423.070312 325.371094 422.949219 325.550781 422.828125 325.765625 C 422.21875 326.800781 421.546875 327.894531 422.097656 328.898438 C 422.25 329.203125 422.675781 329.480469 423.039062 329.480469 C 424.195312 329.355469 424.804688 328.230469 425.351562 327.164062 C 425.441406 326.984375 425.535156 326.800781 425.625 326.617188 C 425.808594 326.28125 425.867188 325.824219 425.746094 325.429688 C 425.65625 325.066406 425.441406 324.792969 425.136719 324.640625 C 424.894531 324.546875 424.621094 324.488281 424.378906 324.488281 Z M 424.378906 324.488281 " fill-opacity="1" fill-rule="nonzero"/><path fill="#ffffff" d="M 295.664062 324.335938 C 295.085938 324.335938 294.597656 324.609375 294.324219 325.09375 C 294.203125 325.308594 294.082031 325.492188 293.960938 325.703125 C 293.59375 326.28125 293.230469 326.890625 293.046875 327.5 C 292.835938 328.140625 293.167969 328.960938 293.746094 329.265625 C 293.992188 329.386719 294.292969 329.480469 294.597656 329.480469 C 295.023438 329.480469 295.421875 329.328125 295.664062 329.050781 C 296.089844 328.566406 296.394531 327.988281 296.726562 327.378906 C 296.851562 327.164062 296.941406 326.953125 297.0625 326.738281 C 297.277344 326.375 297.335938 325.886719 297.214844 325.460938 C 297.09375 325.066406 296.851562 324.761719 296.515625 324.578125 C 296.242188 324.394531 295.96875 324.335938 295.664062 324.335938 Z M 295.664062 324.335938 " fill-opacity="1" fill-rule="nonzero"/><path fill="#ffffff" d="M 279.539062 317.089844 C 279.328125 317.089844 278.597656 317.152344 278.355469 317.757812 C 278.261719 317.972656 278.171875 318.1875 278.078125 318.398438 C 277.804688 319.007812 277.5 319.648438 277.53125 320.253906 C 277.5625 321.109375 278.230469 321.566406 278.839844 321.566406 C 279.207031 321.566406 279.539062 321.441406 279.8125 321.199219 C 280.179688 320.894531 280.390625 320.347656 280.605469 319.828125 C 280.664062 319.648438 280.757812 319.464844 280.816406 319.3125 C 281.121094 318.613281 281.089844 317.699219 280.300781 317.304688 C 280.085938 317.152344 279.8125 317.089844 279.539062 317.089844 Z M 279.539062 317.089844 " fill-opacity="1" fill-rule="nonzero"/><path fill="#ffffff" d="M 292.226562 316.023438 C 291.738281 316.023438 291.28125 316.269531 290.980469 316.726562 C 290.917969 316.816406 290.855469 316.90625 290.796875 317 C 290.550781 317.363281 290.308594 317.699219 290.15625 318.125 C 289.976562 318.703125 290.003906 319.523438 290.644531 319.890625 C 290.886719 320.042969 291.101562 320.105469 291.3125 320.105469 C 292.132812 320.105469 292.804688 319.070312 293.320312 318.339844 L 293.441406 318.15625 C 293.625 317.882812 293.6875 317.546875 293.59375 317.152344 C 293.503906 316.753906 293.261719 316.421875 292.925781 316.238281 C 292.710938 316.085938 292.46875 316.023438 292.226562 316.023438 Z M 292.226562 316.023438 " fill-opacity="1" fill-rule="nonzero"/><path fill="#ffffff" d="M 427.296875 311.335938 C 426.964844 311.335938 426.476562 311.457031 426.140625 312.039062 C 425.988281 312.28125 425.839844 312.554688 425.65625 312.796875 C 424.957031 313.894531 424.226562 315.050781 424.285156 316.296875 C 424.316406 316.96875 424.804688 317.210938 425.230469 317.210938 C 425.382812 317.210938 425.5625 317.179688 425.714844 317.121094 C 426.871094 316.601562 427.542969 315.414062 428.242188 314.230469 C 428.394531 313.984375 428.515625 313.742188 428.667969 313.527344 C 429.03125 312.949219 428.910156 312.492188 428.726562 312.1875 C 428.453125 311.703125 427.875 311.335938 427.296875 311.335938 Z M 427.296875 311.335938 " fill-opacity="1" fill-rule="nonzero"/><path fill="#d67643" d="M 280.453125 317 C 279.691406 316.601562 278.414062 316.726562 278.050781 317.636719 C 277.714844 318.460938 277.136719 319.34375 277.199219 320.253906 C 277.257812 321.71875 278.871094 322.324219 279.996094 321.414062 C 280.574219 320.925781 280.789062 320.074219 281.089844 319.402344 C 281.457031 318.550781 281.367188 317.484375 280.453125 317 Z M 293.078125 315.933594 C 292.226562 315.476562 291.28125 315.75 290.734375 316.542969 C 290.429688 317 290.066406 317.457031 289.882812 318.003906 C 289.640625 318.792969 289.761719 319.707031 290.492188 320.132812 C 291.984375 321.015625 292.988281 319.3125 293.6875 318.277344 C 294.203125 317.546875 293.867188 316.359375 293.078125 315.933594 Z M 296.636719 324.273438 C 295.722656 323.785156 294.566406 324.03125 294.050781 324.941406 C 293.59375 325.734375 293.015625 326.527344 292.742188 327.410156 C 292.5 328.167969 292.863281 329.144531 293.59375 329.539062 C 294.324219 329.90625 295.328125 329.875 295.875 329.234375 C 296.484375 328.566406 296.851562 327.683594 297.304688 326.859375 C 297.792969 326.007812 297.550781 324.761719 296.636719 324.273438 Z M 414.398438 325.429688 C 413.609375 324.941406 412.390625 325.1875 411.933594 326.070312 C 411.386719 327.164062 410.503906 328.382812 410.292969 329.570312 C 410.140625 330.332031 410.382812 331.09375 411.082031 331.519531 C 411.722656 331.882812 412.664062 331.824219 413.183594 331.246094 C 414.035156 330.332031 414.492188 329.023438 415.039062 327.894531 C 415.464844 327.011719 415.28125 325.949219 414.398438 325.429688 Z M 425.261719 324.394531 C 424.4375 323.96875 423.34375 324.152344 422.886719 325.003906 C 422.21875 326.222656 421.0625 327.652344 421.792969 329.050781 C 422.003906 329.480469 422.550781 329.78125 423.007812 329.78125 C 424.589844 329.632812 425.199219 327.988281 425.867188 326.769531 C 426.324219 325.976562 426.082031 324.820312 425.261719 324.394531 Z M 425.867188 311.886719 C 425.046875 313.253906 423.890625 314.65625 423.980469 316.328125 C 424.042969 317.332031 424.984375 317.757812 425.839844 317.394531 C 427.328125 316.726562 428.089844 315.019531 428.910156 313.679688 C 430.128906 311.734375 427.023438 309.9375 425.867188 311.886719 Z M 425.867188 311.886719 C 425.046875 313.253906 423.890625 314.65625 423.980469 316.328125 C 424.042969 317.332031 424.984375 317.757812 425.839844 317.394531 C 427.328125 316.726562 428.089844 315.019531 428.910156 313.679688 C 430.128906 311.734375 427.023438 309.9375 425.867188 311.886719 Z M 425.261719 324.394531 C 424.4375 323.96875 423.34375 324.152344 422.886719 325.003906 C 422.21875 326.222656 421.0625 327.652344 421.792969 329.050781 C 422.003906 329.480469 422.550781 329.78125 423.007812 329.78125 C 424.589844 329.632812 425.199219 327.988281 425.867188 326.769531 C 426.324219 325.976562 426.082031 324.820312 425.261719 324.394531 Z M 414.398438 325.429688 C 413.609375 324.941406 412.390625 325.1875 411.933594 326.070312 C 411.386719 327.164062 410.503906 328.382812 410.292969 329.570312 C 410.140625 330.332031 410.382812 331.09375 411.082031 331.519531 C 411.722656 331.882812 412.664062 331.824219 413.183594 331.246094 C 414.035156 330.332031 414.492188 329.023438 415.039062 327.894531 C 415.464844 327.011719 415.28125 325.949219 414.398438 325.429688 Z M 296.636719 324.273438 C 295.722656 323.785156 294.566406 324.03125 294.050781 324.941406 C 293.59375 325.734375 293.015625 326.527344 292.742188 327.410156 C 292.5 328.167969 292.863281 329.144531 293.59375 329.539062 C 294.324219 329.90625 295.328125 329.875 295.875 329.234375 C 296.484375 328.566406 296.851562 327.683594 297.304688 326.859375 C 297.792969 326.007812 297.550781 324.761719 296.636719 324.273438 Z M 293.078125 315.933594 C 292.226562 315.476562 291.28125 315.75 290.734375 316.542969 C 290.429688 317 290.066406 317.457031 289.882812 318.003906 C 289.640625 318.792969 289.761719 319.707031 290.492188 320.132812 C 291.984375 321.015625 292.988281 319.3125 293.6875 318.277344 C 294.203125 317.546875 293.867188 316.359375 293.078125 315.933594 Z M 280.453125 317 C 279.691406 316.601562 278.414062 316.726562 278.050781 317.636719 C 277.714844 318.460938 277.136719 319.34375 277.199219 320.253906 C 277.257812 321.71875 278.871094 322.324219 279.996094 321.414062 C 280.574219 320.925781 280.789062 320.074219 281.089844 319.402344 C 281.457031 318.550781 281.367188 317.484375 280.453125 317 Z M 454.039062 312.859375 C 450.8125 307.5 446.496094 304.246094 443.359375 302.417969 C 441.351562 294.71875 438.644531 287.199219 435.175781 279.953125 C 427.722656 260.441406 386.683594 252.226562 358.546875 252.378906 C 330.800781 252.527344 292.957031 260.929688 283.34375 276.757812 C 283.160156 276.851562 282.976562 277.003906 282.855469 277.246094 C 278.78125 284.429688 275.980469 292.375 273.304688 300.167969 C 272.480469 302.539062 271.628906 304.976562 270.808594 307.410156 C 264.542969 308.382812 258.0625 310.179688 253.773438 314.808594 C 249.332031 319.585938 248.570312 328.199219 253.773438 332.125 C 256.84375 334.441406 258.851562 334.320312 264.023438 337.179688 C 270.6875 340.894531 273.851562 346.3125 275.191406 348.105469 C 285.59375 362.109375 355.441406 385.515625 407.402344 364.269531 C 414.15625 361.5 419.996094 358.121094 431.648438 351.363281 C 453.398438 338.730469 457.140625 333.648438 457.992188 328.351562 C 458.023438 328.140625 458.054688 327.894531 458.054688 327.894531 C 458.96875 321.015625 455.5 315.292969 454.039062 312.859375 Z M 292.4375 338.457031 C 284.527344 334.621094 276.984375 330.148438 269.867188 325.035156 C 272.390625 317.484375 274.1875 309.632812 276.710938 302.054688 C 278.230469 297.519531 279.933594 293.042969 281.609375 288.539062 C 281.914062 289.632812 282.246094 290.546875 282.550781 291.277344 C 291.128906 313.042969 335.578125 318.367188 360.554688 317.972656 C 386.289062 317.578125 430.371094 310.453125 435.847656 290.457031 C 439.769531 302.023438 442.480469 313.984375 443.542969 326.191406 C 399.371094 357.054688 341.082031 362.019531 292.4375 338.457031 Z M 425.867188 311.886719 C 425.046875 313.253906 423.890625 314.65625 423.980469 316.328125 C 424.042969 317.332031 424.984375 317.757812 425.839844 317.394531 C 427.328125 316.726562 428.089844 315.019531 428.910156 313.679688 C 430.128906 311.734375 427.023438 309.9375 425.867188 311.886719 Z M 425.261719 324.394531 C 424.4375 323.96875 423.34375 324.152344 422.886719 325.003906 C 422.21875 326.222656 421.0625 327.652344 421.792969 329.050781 C 422.003906 329.480469 422.550781 329.78125 423.007812 329.78125 C 424.589844 329.632812 425.199219 327.988281 425.867188 326.769531 C 426.324219 325.976562 426.082031 324.820312 425.261719 324.394531 Z M 414.398438 325.429688 C 413.609375 324.941406 412.390625 325.1875 411.933594 326.070312 C 411.386719 327.164062 410.503906 328.382812 410.292969 329.570312 C 410.140625 330.332031 410.382812 331.09375 411.082031 331.519531 C 411.722656 331.882812 412.664062 331.824219 413.183594 331.246094 C 414.035156 330.332031 414.492188 329.023438 415.039062 327.894531 C 415.464844 327.011719 415.28125 325.949219 414.398438 325.429688 Z M 296.636719 324.273438 C 295.722656 323.785156 294.566406 324.03125 294.050781 324.941406 C 293.59375 325.734375 293.015625 326.527344 292.742188 327.410156 C 292.5 328.167969 292.863281 329.144531 293.59375 329.539062 C 294.324219 329.90625 295.328125 329.875 295.875 329.234375 C 296.484375 328.566406 296.851562 327.683594 297.304688 326.859375 C 297.792969 326.007812 297.550781 324.761719 296.636719 324.273438 Z M 293.078125 315.933594 C 292.226562 315.476562 291.28125 315.75 290.734375 316.542969 C 290.429688 317 290.066406 317.457031 289.882812 318.003906 C 289.640625 318.792969 289.761719 319.707031 290.492188 320.132812 C 291.984375 321.015625 292.988281 319.3125 293.6875 318.277344 C 294.203125 317.546875 293.867188 316.359375 293.078125 315.933594 Z M 280.453125 317 C 279.691406 316.601562 278.414062 316.726562 278.050781 317.636719 C 277.714844 318.460938 277.136719 319.34375 277.199219 320.253906 C 277.257812 321.71875 278.871094 322.324219 279.996094 321.414062 C 280.574219 320.925781 280.789062 320.074219 281.089844 319.402344 C 281.457031 318.550781 281.367188 317.484375 280.453125 317 Z M 280.453125 317 C 279.691406 316.601562 278.414062 316.726562 278.050781 317.636719 C 277.714844 318.460938 277.136719 319.34375 277.199219 320.253906 C 277.257812 321.71875 278.871094 322.324219 279.996094 321.414062 C 280.574219 320.925781 280.789062 320.074219 281.089844 319.402344 C 281.457031 318.550781 281.367188 317.484375 280.453125 317 Z M 293.078125 315.933594 C 292.226562 315.476562 291.28125 315.75 290.734375 316.542969 C 290.429688 317 290.066406 317.457031 289.882812 318.003906 C 289.640625 318.792969 289.761719 319.707031 290.492188 320.132812 C 291.984375 321.015625 292.988281 319.3125 293.6875 318.277344 C 294.203125 317.546875 293.867188 316.359375 293.078125 315.933594 Z M 296.636719 324.273438 C 295.722656 323.785156 294.566406 324.03125 294.050781 324.941406 C 293.59375 325.734375 293.015625 326.527344 292.742188 327.410156 C 292.5 328.167969 292.863281 329.144531 293.59375 329.539062 C 294.324219 329.90625 295.328125 329.875 295.875 329.234375 C 296.484375 328.566406 296.851562 327.683594 297.304688 326.859375 C 297.792969 326.007812 297.550781 324.761719 296.636719 324.273438 Z M 414.398438 325.429688 C 413.609375 324.941406 412.390625 325.1875 411.933594 326.070312 C 411.386719 327.164062 410.503906 328.382812 410.292969 329.570312 C 410.140625 330.332031 410.382812 331.09375 411.082031 331.519531 C 411.722656 331.882812 412.664062 331.824219 413.183594 331.246094 C 414.035156 330.332031 414.492188 329.023438 415.039062 327.894531 C 415.464844 327.011719 415.28125 325.949219 414.398438 325.429688 Z M 425.261719 324.394531 C 424.4375 323.96875 423.34375 324.152344 422.886719 325.003906 C 422.21875 326.222656 421.0625 327.652344 421.792969 329.050781 C 422.003906 329.480469 422.550781 329.78125 423.007812 329.78125 C 424.589844 329.632812 425.199219 327.988281 425.867188 326.769531 C 426.324219 325.976562 426.082031 324.820312 425.261719 324.394531 Z M 425.867188 311.886719 C 425.046875 313.253906 423.890625 314.65625 423.980469 316.328125 C 424.042969 317.332031 424.984375 317.757812 425.839844 317.394531 C 427.328125 316.726562 428.089844 315.019531 428.910156 313.679688 C 430.128906 311.734375 427.023438 309.9375 425.867188 311.886719 Z M 414.398438 325.429688 C 413.609375 324.941406 412.390625 325.1875 411.933594 326.070312 C 411.386719 327.164062 410.503906 328.382812 410.292969 329.570312 C 410.140625 330.332031 410.382812 331.09375 411.082031 331.519531 C 411.722656 331.882812 412.664062 331.824219 413.183594 331.246094 C 414.035156 330.332031 414.492188 329.023438 415.039062 327.894531 C 415.464844 327.011719 415.28125 325.949219 414.398438 325.429688 Z M 425.261719 324.394531 C 424.4375 323.96875 423.34375 324.152344 422.886719 325.003906 C 422.21875 326.222656 421.0625 327.652344 421.792969 329.050781 C 422.003906 329.480469 422.550781 329.78125 423.007812 329.78125 C 424.589844 329.632812 425.199219 327.988281 425.867188 326.769531 C 426.324219 325.976562 426.082031 324.820312 425.261719 324.394531 Z M 425.867188 311.886719 C 425.046875 313.253906 423.890625 314.65625 423.980469 316.328125 C 424.042969 317.332031 424.984375 317.757812 425.839844 317.394531 C 427.328125 316.726562 428.089844 315.019531 428.910156 313.679688 C 430.128906 311.734375 427.023438 309.9375 425.867188 311.886719 Z M 280.453125 317 C 279.691406 316.601562 278.414062 316.726562 278.050781 317.636719 C 277.714844 318.460938 277.136719 319.34375 277.199219 320.253906 C 277.257812 321.71875 278.871094 322.324219 279.996094 321.414062 C 280.574219 320.925781 280.789062 320.074219 281.089844 319.402344 C 281.457031 318.550781 281.367188 317.484375 280.453125 317 Z M 293.078125 315.933594 C 292.226562 315.476562 291.28125 315.75 290.734375 316.542969 C 290.429688 317 290.066406 317.457031 289.882812 318.003906 C 289.640625 318.792969 289.761719 319.707031 290.492188 320.132812 C 291.984375 321.015625 292.988281 319.3125 293.6875 318.277344 C 294.203125 317.546875 293.867188 316.359375 293.078125 315.933594 Z M 296.636719 324.273438 C 295.722656 323.785156 294.566406 324.03125 294.050781 324.941406 C 293.59375 325.734375 293.015625 326.527344 292.742188 327.410156 C 292.5 328.167969 292.863281 329.144531 293.59375 329.539062 C 294.324219 329.90625 295.328125 329.875 295.875 329.234375 C 296.484375 328.566406 296.851562 327.683594 297.304688 326.859375 C 297.792969 326.007812 297.550781 324.761719 296.636719 324.273438 Z M 252.707031 340.222656 C 252.070312 339.828125 251.097656 340.042969 250.730469 340.742188 L 249.363281 343.480469 C 248.996094 344.179688 249.179688 345.03125 249.878906 345.460938 C 250.519531 345.855469 251.492188 345.640625 251.855469 344.941406 L 253.226562 342.203125 C 253.589844 341.503906 253.40625 340.621094 252.707031 340.222656 Z M 261.164062 342.140625 C 260.558594 341.777344 259.492188 341.929688 259.1875 342.660156 C 258.914062 343.296875 258.640625 343.9375 258.367188 344.578125 C 258.0625 345.277344 258.152344 346.128906 258.882812 346.554688 C 259.492188 346.921875 260.558594 346.769531 260.859375 346.039062 C 261.136719 345.398438 261.410156 344.757812 261.683594 344.121094 C 261.988281 343.390625 261.894531 342.566406 261.164062 342.140625 Z M 453.949219 340.621094 C 453.125 340.375 452.425781 340.894531 452.152344 341.625 C 451.605469 343.054688 451.058594 344.515625 450.511719 345.976562 C 450.234375 346.707031 450.8125 347.589844 451.515625 347.773438 C 452.335938 348.015625 453.035156 347.5 453.308594 346.769531 C 453.855469 345.335938 454.402344 343.875 454.953125 342.414062 C 455.226562 341.652344 454.648438 340.800781 453.949219 340.621094 Z M 460.304688 333.039062 C 460.335938 334.167969 460.152344 335.324219 459.699219 336.386719 C 459.394531 337.089844 459.484375 337.941406 460.214844 338.367188 C 460.824219 338.730469 461.886719 338.578125 462.191406 337.847656 C 462.859375 336.296875 463.226562 334.714844 463.195312 333.007812 C 463.164062 331.152344 460.246094 331.121094 460.304688 333.039062 Z M 460.304688 333.039062 " fill-opacity="1" fill-rule="nonzero"/><path fill="#ffe078" d="M 365.785156 261.539062 C 367.640625 261.628906 367.640625 264.550781 365.785156 264.460938 C 343.457031 263.214844 321.371094 268.175781 301.746094 278.917969 C 300.105469 279.832031 298.644531 277.304688 300.289062 276.421875 C 320.367188 265.433594 342.96875 260.261719 365.785156 261.539062 Z M 339.925781 271.980469 C 338.617188 272.253906 337.3125 272.496094 336.003906 272.769531 C 334.175781 273.136719 334.9375 275.9375 336.761719 275.570312 C 338.070312 275.296875 339.378906 275.054688 340.6875 274.78125 C 342.511719 274.414062 341.753906 271.613281 339.925781 271.980469 Z M 381.421875 295.8125 C 380.90625 296.847656 380.386719 297.914062 379.839844 298.949219 C 379.476562 299.648438 379.65625 300.53125 380.359375 300.925781 C 380.996094 301.292969 382 301.109375 382.335938 300.410156 C 382.851562 299.375 383.371094 298.308594 383.917969 297.273438 C 384.28125 296.574219 384.097656 295.691406 383.398438 295.296875 C 382.761719 294.929688 381.789062 295.113281 381.421875 295.8125 Z M 393.195312 294.230469 C 392.800781 295.023438 392.40625 295.8125 392.007812 296.574219 C 391.644531 297.273438 391.828125 298.15625 392.527344 298.554688 C 393.164062 298.917969 394.167969 298.734375 394.503906 298.035156 C 394.898438 297.242188 395.292969 296.453125 395.691406 295.691406 C 396.054688 294.992188 395.871094 294.109375 395.171875 293.714844 C 394.535156 293.347656 393.5625 293.53125 393.195312 294.230469 Z M 406.582031 291.886719 C 406.1875 292.679688 405.789062 293.46875 405.394531 294.230469 C 405.03125 294.929688 405.210938 295.8125 405.910156 296.210938 C 406.550781 296.574219 407.554688 296.390625 407.890625 295.691406 C 408.285156 294.898438 408.679688 294.109375 409.074219 293.347656 C 409.441406 292.648438 409.257812 291.765625 408.558594 291.371094 C 407.917969 291.003906 406.914062 291.1875 406.582031 291.886719 Z M 406.582031 291.886719 " fill-opacity="1" fill-rule="nonzero"/><g clip-path="url(#677befe209)"><path fill="#ff694f" d="M 273.363281 263.699219 C 251.125 269.058594 230.835938 280.289062 214.4375 296.238281 C 213.097656 297.546875 215.136719 299.585938 216.507812 298.308594 C 232.539062 282.664062 252.375 271.734375 274.15625 266.5 C 275.949219 266.042969 275.191406 263.242188 273.363281 263.699219 Z M 496.355469 336.9375 C 486.253906 351.058594 472.078125 361.714844 455.742188 367.527344 C 453.976562 368.136719 454.738281 370.96875 456.503906 370.328125 C 473.601562 364.238281 488.292969 353.160156 498.851562 338.398438 C 499.945312 336.875 497.449219 335.414062 496.355469 336.9375 Z M 496.355469 336.9375 C 486.253906 351.058594 472.078125 361.714844 455.742188 367.527344 C 453.976562 368.136719 454.738281 370.96875 456.503906 370.328125 C 473.601562 364.238281 488.292969 353.160156 498.851562 338.398438 C 499.945312 336.875 497.449219 335.414062 496.355469 336.9375 Z M 273.363281 263.699219 C 251.125 269.058594 230.835938 280.289062 214.4375 296.238281 C 213.097656 297.546875 215.136719 299.585938 216.507812 298.308594 C 232.539062 282.664062 252.375 271.734375 274.15625 266.5 C 275.949219 266.042969 275.191406 263.242188 273.363281 263.699219 Z M 505.664062 304.304688 C 496.355469 283.089844 473.996094 270.367188 453.460938 262.085938 C 427.785156 251.738281 399.917969 246.53125 372.417969 244.644531 C 366.027344 244.1875 359.640625 243.976562 353.25 243.976562 C 324.746094 244.097656 295.90625 248.328125 268.648438 256.761719 C 246.378906 263.640625 221.34375 273.804688 206.832031 293.042969 C 200.078125 301.992188 196.761719 312.828125 198.527344 324.0625 C 200.199219 334.804688 205.433594 344.878906 212.582031 352.976562 C 228.308594 370.816406 252.222656 380.191406 274.640625 386.1875 C 322.679688 399.03125 374.425781 399.09375 422.855469 388.621094 C 460.214844 380.554688 528.238281 355.746094 505.664062 304.304688 Z M 437.277344 382.078125 C 392.160156 394.617188 343.699219 396.445312 297.640625 388.285156 C 274.125 384.117188 249.847656 377.421875 229.769531 363.964844 C 211.515625 351.730469 194.664062 328.75 203.089844 305.738281 C 210.878906 284.488281 234.910156 272.34375 254.59375 264.675781 C 279.875 254.84375 307.132812 249.578125 334.148438 247.628906 C 340.503906 247.171875 346.863281 246.929688 353.25 246.898438 C 378.957031 246.898438 404.847656 250.277344 429.640625 257.125 C 452.488281 263.457031 477.039062 272.984375 493.375 290.941406 C 508.554688 307.5625 511.71875 332.003906 496.902344 349.84375 C 482.332031 367.375 458.570312 376.171875 437.277344 382.078125 Z M 496.355469 336.9375 C 486.253906 351.058594 472.078125 361.714844 455.742188 367.527344 C 453.976562 368.136719 454.738281 370.96875 456.503906 370.328125 C 473.601562 364.238281 488.292969 353.160156 498.851562 338.398438 C 499.945312 336.875 497.449219 335.414062 496.355469 336.9375 Z M 273.363281 263.699219 C 251.125 269.058594 230.835938 280.289062 214.4375 296.238281 C 213.097656 297.546875 215.136719 299.585938 216.507812 298.308594 C 232.539062 282.664062 252.375 271.734375 274.15625 266.5 C 275.949219 266.042969 275.191406 263.242188 273.363281 263.699219 Z M 273.363281 263.699219 C 251.125 269.058594 230.835938 280.289062 214.4375 296.238281 C 213.097656 297.546875 215.136719 299.585938 216.507812 298.308594 C 232.539062 282.664062 252.375 271.734375 274.15625 266.5 C 275.949219 266.042969 275.191406 263.242188 273.363281 263.699219 Z M 496.355469 336.9375 C 486.253906 351.058594 472.078125 361.714844 455.742188 367.527344 C 453.976562 368.136719 454.738281 370.96875 456.503906 370.328125 C 473.601562 364.238281 488.292969 353.160156 498.851562 338.398438 C 499.945312 336.875 497.449219 335.414062 496.355469 336.9375 Z M 496.355469 336.9375 " fill-opacity="1" fill-rule="nonzero"/></g><g fill="#fff2d5" fill-opacity="1"><g transform="translate(523.294645, 290.04997)"><g><path d="M 20.679688 -5.730469 C 20.570312 -9.5 20.085938 -12.730469 15.855469 -13.5625 C 14.148438 -13.898438 12.53125 -13.640625 11.203125 -12.777344 L 11.816406 -15.890625 L 12.734375 -20.378906 C 12.890625 -21.164062 12.753906 -21.667969 12.097656 -21.796875 C 11.507812 -21.914062 7.699219 -21.4375 6.296875 -21.066406 C 5.441406 -20.863281 5.0625 -20.664062 4.953125 -20.105469 C 4.757812 -19.125 6.214844 -18.734375 5.882812 -17.0625 L 3.433594 -4.296875 C 2.847656 -1.3125 1.363281 -2.59375 1.027344 -0.886719 C 0.863281 -0.0664062 1.441406 0.285156 2.523438 0.496094 L 8.425781 1.660156 C 9.410156 1.855469 10.03125 1.808594 10.195312 0.988281 C 10.542969 -0.78125 8.714844 -0.15625 9.304688 -3.136719 L 10.214844 -7.761719 C 10.550781 -9.464844 11.65625 -10.578125 13 -10.3125 C 14.371094 -10.007812 14.800781 -8.390625 14.824219 -6.785156 L 14.96875 -1.648438 C 15.003906 0.609375 13.273438 0.230469 13.027344 1.476562 C 12.863281 2.296875 13.410156 2.644531 14.523438 2.863281 L 20.195312 3.980469 C 21.179688 4.175781 21.800781 4.128906 21.964844 3.308594 C 22.234375 1.929688 20.929688 1.980469 20.851562 -0.0429688 Z M 20.679688 -5.730469 "/></g></g></g><g fill="#fff2d5" fill-opacity="1"><g transform="translate(545.504223, 294.383318)"><g><path d="M 8.78125 1.613281 C 14.203125 2.398438 18.820312 -0.78125 19.558594 -5.871094 C 20.183594 -10.171875 17.628906 -13.984375 12.867188 -14.675781 C 7.476562 -15.460938 2.835938 -12.082031 2.121094 -7.15625 C 1.4375 -2.457031 4.417969 0.980469 8.78125 1.613281 Z M 10.964844 -0.871094 C 8.683594 -1.203125 7.726562 -5.53125 8.222656 -8.96875 C 8.449219 -10.523438 8.875 -12.523438 10.695312 -12.257812 C 13.074219 -11.914062 13.859375 -7.308594 13.34375 -3.769531 C 13.144531 -2.378906 12.652344 -0.628906 10.964844 -0.871094 Z M 10.964844 -0.871094 "/></g></g></g><g fill="#fff2d5" fill-opacity="1"><g transform="translate(565.408402, 297.455412)"><g><path d="M 29.992188 -7.203125 C 29.425781 -10.9375 28.84375 -14.070312 24.414062 -14.433594 C 22.351562 -14.601562 20.472656 -13.78125 19.105469 -12.21875 C 18.371094 -13.921875 16.855469 -15.050781 14.257812 -15.261719 C 12.257812 -15.425781 10.253906 -14.683594 8.777344 -13.027344 L 8.894531 -14.460938 C 8.957031 -15.226562 8.761719 -15.710938 8.097656 -15.800781 C 7.53125 -15.847656 4.464844 -15.226562 3.042969 -14.671875 C 2.214844 -14.371094 1.828125 -14.132812 1.773438 -13.46875 C 1.722656 -12.867188 2.101562 -12.570312 2.3125 -12.285156 C 2.742188 -11.8125 3.3125 -11.398438 3.25 -10.632812 L 2.761719 -4.667969 C 2.515625 -1.636719 0.894531 -2.742188 0.753906 -1.011719 C 0.683594 -0.179688 1.300781 0.105469 2.398438 0.195312 L 8.394531 0.6875 C 9.390625 0.769531 10.003906 0.652344 10.074219 -0.183594 C 10.21875 -1.980469 8.476562 -1.152344 8.722656 -4.183594 L 9.109375 -8.878906 C 9.253906 -10.644531 10.597656 -11.90625 11.894531 -11.800781 C 13.761719 -11.648438 13.714844 -9.84375 13.554688 -7.910156 L 13.21875 -3.8125 C 12.972656 -0.785156 11.386719 -1.886719 11.246094 -0.152344 C 11.175781 0.679688 11.757812 0.960938 12.890625 1.054688 L 18.882812 1.542969 C 19.851562 1.621094 20.496094 1.507812 20.566406 0.675781 C 20.710938 -1.121094 18.933594 -0.296875 19.183594 -3.328125 L 19.597656 -8.019531 C 19.757812 -9.953125 20.847656 -10.96875 22.046875 -10.871094 C 23.640625 -10.707031 23.816406 -9.183594 24.054688 -7.589844 L 24.78125 -2.5 C 25.066406 -0.265625 23.304688 -0.441406 23.199219 0.824219 C 23.132812 1.65625 23.714844 1.9375 24.8125 2.027344 L 30.609375 2.503906 C 31.574219 2.582031 32.21875 2.46875 32.289062 1.632812 C 32.402344 0.234375 31.078125 0.429688 30.804688 -1.570312 Z M 29.992188 -7.203125 "/></g></g></g><g fill="#fff2d5" fill-opacity="1"><g transform="translate(598.097855, 299.897061)"><g><path d="M 16.394531 -5.578125 C 15.167969 -4.53125 13.710938 -3.558594 11.871094 -3.597656 C 9.800781 -3.640625 8.582031 -4.535156 7.9375 -5.652344 C 10.96875 -6.824219 12.992188 -7.6875 16.199219 -9.222656 C 16.675781 -9.480469 16.984375 -9.976562 16.929688 -10.480469 C 16.6875 -13.324219 14.539062 -16.078125 10.195312 -16.167969 C 5.816406 -16.257812 1.332031 -12.773438 1.226562 -7.527344 C 1.128906 -2.816406 4.304688 0.421875 9.148438 0.523438 C 13.792969 0.621094 16.863281 -2.425781 17.539062 -4.449219 C 17.894531 -5.546875 17.210938 -6.296875 16.394531 -5.578125 Z M 8.265625 -13.367188 C 9.644531 -13.871094 10.894531 -12.84375 11.527344 -11.058594 C 11.871094 -9.914062 11.164062 -9.730469 10.589844 -9.472656 C 9.375 -8.863281 8.195312 -8.386719 7.050781 -8.007812 C 6.828125 -8.550781 6.714844 -9.554688 6.730469 -10.222656 C 6.765625 -11.992188 7.320312 -12.984375 8.265625 -13.367188 Z M 8.265625 -13.367188 "/></g></g></g><g fill="#fff2d5" fill-opacity="1"><g transform="translate(616.814963, 300.481982)"><g><path d="M 28.894531 -10.792969 C 27.878906 -14.433594 26.921875 -17.46875 22.480469 -17.292969 C 20.410156 -17.207031 18.644531 -16.167969 17.476562 -14.449219 C 16.542969 -16.050781 14.902344 -16.988281 12.296875 -16.882812 C 10.292969 -16.800781 8.394531 -15.820312 7.128906 -14 L 7.070312 -15.433594 C 7.039062 -16.203125 6.789062 -16.660156 6.117188 -16.667969 C 5.550781 -16.644531 2.582031 -15.65625 1.238281 -14.933594 C 0.453125 -14.53125 0.09375 -14.25 0.121094 -13.582031 C 0.148438 -12.980469 0.558594 -12.730469 0.800781 -12.472656 C 1.289062 -12.058594 1.902344 -11.714844 1.933594 -10.945312 L 2.175781 -4.96875 C 2.296875 -1.933594 0.554688 -2.832031 0.625 -1.09375 C 0.660156 -0.261719 1.300781 -0.0507812 2.402344 -0.0976562 L 8.414062 -0.339844 C 9.414062 -0.378906 10.011719 -0.570312 9.976562 -1.40625 C 9.902344 -3.207031 8.273438 -2.171875 8.152344 -5.210938 L 7.960938 -9.917969 C 7.890625 -11.6875 9.070312 -13.105469 10.375 -13.160156 C 12.242188 -13.234375 12.414062 -11.433594 12.492188 -9.5 L 12.660156 -5.390625 C 12.78125 -2.355469 11.074219 -3.253906 11.140625 -1.519531 C 11.175781 -0.683594 11.785156 -0.472656 12.921875 -0.519531 L 18.933594 -0.761719 C 19.898438 -0.800781 20.527344 -0.992188 20.496094 -1.828125 C 20.421875 -3.628906 18.757812 -2.59375 18.636719 -5.632812 L 18.480469 -10.339844 C 18.402344 -12.277344 19.359375 -13.421875 20.5625 -13.46875 C 22.164062 -13.5 22.527344 -12.007812 22.957031 -10.453125 L 24.292969 -5.492188 C 24.847656 -3.308594 23.078125 -3.269531 23.128906 -2 C 23.164062 -1.164062 23.773438 -0.957031 24.875 -1 L 30.683594 -1.234375 C 31.652344 -1.273438 32.28125 -1.464844 32.246094 -2.300781 C 32.191406 -3.703125 30.902344 -3.351562 30.386719 -5.300781 Z M 28.894531 -10.792969 "/></g></g></g><g fill="#fff2d5" fill-opacity="1"><g transform="translate(649.574836, 298.95424)"><g><path d="M 19.125 -5.074219 C 18.304688 -4.921875 17.949219 -5.726562 17.511719 -6.722656 L 15.269531 -11.796875 C 14.132812 -14.367188 12.667969 -17.777344 7.847656 -17.277344 C 4.460938 -16.925781 1.996094 -14.753906 1.296875 -13.070312 C 0.835938 -12.011719 1.792969 -11.542969 2.378906 -12.039062 C 3.285156 -12.703125 4.714844 -13.492188 5.8125 -13.605469 C 7.871094 -13.820312 8.953125 -12.453125 9.605469 -11.042969 C 8.605469 -10.972656 8.269531 -10.96875 7.871094 -10.929688 C 2.484375 -10.371094 0.0429688 -7.699219 0.367188 -4.539062 C 0.65625 -1.78125 3.351562 -0.078125 6.675781 -0.425781 C 8.667969 -0.628906 10.835938 -1.425781 12.445312 -3.40625 C 13.292969 -1.714844 14.652344 -1.25 16.015625 -1.394531 C 17.710938 -1.570312 19.949219 -2.976562 19.796875 -4.441406 C 19.757812 -4.839844 19.488281 -5.148438 19.125 -5.074219 Z M 9.128906 -3.667969 C 7.332031 -3.480469 5.941406 -4.582031 5.773438 -6.210938 C 5.65625 -7.640625 6.753906 -8.730469 8.582031 -8.917969 C 9.679688 -9.035156 10.144531 -8.746094 10.492188 -8.007812 C 10.914062 -7.179688 11.296875 -6.378906 11.398438 -6.054688 C 11.792969 -4.851562 10.589844 -3.820312 9.128906 -3.667969 Z M 9.128906 -3.667969 "/></g></g></g><g fill="#fff2d5" fill-opacity="1"><g transform="translate(670.013693, 296.827894)"><g><path d="M 14.488281 -24.945312 C 14.367188 -25.738281 14.066406 -26.167969 13.4375 -26.070312 C 12.84375 -25.980469 9.425781 -24.238281 8.199219 -23.40625 C 7.464844 -22.921875 7.207031 -22.609375 7.292969 -22.050781 C 7.445312 -21.058594 8.953125 -21.15625 9.207031 -19.503906 L 9.492188 -17.652344 C 8.800781 -17.75 7.980469 -17.792969 7.023438 -17.644531 C 3.589844 -17.117188 -0.949219 -13.207031 0.015625 -6.933594 C 0.675781 -2.640625 3.820312 -0.453125 7.210938 -0.804688 C 9.609375 -1.039062 11.050781 -2.238281 11.878906 -3.652344 C 12.246094 -2.152344 12.816406 -1.734375 13.839844 -1.890625 C 14.898438 -2.054688 17.183594 -3.25 18.21875 -3.984375 C 19.066406 -4.621094 19.410156 -5.046875 19.316406 -5.640625 C 19.164062 -6.632812 17.300781 -6.007812 16.9375 -8.351562 L 15.148438 -20.449219 Z M 9.394531 -4.859375 C 7.347656 -4.542969 5.695312 -6.925781 5.179688 -10.296875 C 4.746094 -13.105469 5.429688 -14.832031 7.078125 -15.085938 C 8.105469 -15.242188 9.09375 -14.753906 9.761719 -13.46875 C 9.964844 -13.027344 10.21875 -12.253906 10.496094 -11.113281 L 10.992188 -7.878906 C 11.066406 -6.097656 10.585938 -5.042969 9.394531 -4.859375 Z M 9.394531 -4.859375 "/></g></g></g><g fill="#fff2d5" fill-opacity="1"><g transform="translate(690.76596, 293.598666)"><g><path d="M 14.78125 -9.019531 C 13.8125 -7.734375 12.601562 -6.46875 10.800781 -6.101562 C 8.769531 -5.691406 7.386719 -6.300781 6.511719 -7.25 C 9.214844 -9.054688 11.003906 -10.335938 13.796875 -12.539062 C 14.203125 -12.894531 14.398438 -13.445312 14.234375 -13.921875 C 13.375 -16.648438 10.675781 -18.863281 6.417969 -18.003906 C 2.128906 -17.136719 -1.488281 -12.757812 -0.449219 -7.613281 C 0.484375 -2.996094 4.292969 -0.527344 9.039062 -1.484375 C 13.59375 -2.40625 15.925781 -6.046875 16.144531 -8.171875 C 16.253906 -9.320312 15.421875 -9.902344 14.78125 -9.019531 Z M 5.148438 -14.847656 C 6.382812 -15.644531 7.828125 -14.910156 8.832031 -13.308594 C 9.417969 -12.265625 8.769531 -11.933594 8.265625 -11.558594 C 7.214844 -10.695312 6.167969 -9.972656 5.132812 -9.355469 C 4.796875 -9.832031 4.46875 -10.789062 4.335938 -11.445312 C 3.984375 -13.179688 4.308594 -14.269531 5.148438 -14.847656 Z M 5.148438 -14.847656 "/></g></g></g><g fill="#fff2d5" fill-opacity="1"><g transform="translate(518.452828, 340.755767)"><g><path d="M 9.425781 3.214844 C 14.101562 4.625 17.507812 2.65625 18.785156 0.75 C 19.472656 -0.300781 18.988281 -1.148438 17.9375 -0.726562 C 16.519531 -0.195312 15.289062 0.324219 13.425781 -0.238281 C 10.101562 -1.242188 8.90625 -4.636719 10.074219 -8.5 C 10.6875 -10.535156 11.8125 -11.5625 13.132812 -11.164062 C 14.355469 -10.796875 14.925781 -9.257812 14.898438 -7.082031 C 14.863281 -5.5 15.195312 -4.144531 16.921875 -3.621094 C 18.3125 -3.203125 19.96875 -3.664062 20.574219 -5.664062 C 21.523438 -8.816406 19.417969 -12.265625 15.183594 -13.542969 C 10.265625 -15.027344 4.980469 -12.589844 3.386719 -7.300781 C 2.167969 -3.265625 3.761719 1.503906 9.425781 3.214844 Z M 9.425781 3.214844 "/></g></g></g><g fill="#fff2d5" fill-opacity="1"><g transform="translate(537.521183, 346.522213)"><g><path d="M 20.914062 1.527344 C 20.035156 1.394531 19.960938 0.46875 19.863281 -0.679688 L 19.375 -6.539062 C 19.121094 -9.507812 18.835938 -13.429688 13.835938 -14.59375 C 10.316406 -15.414062 7.101562 -14.089844 5.816406 -12.644531 C 4.988281 -11.746094 5.785156 -10.941406 6.542969 -11.238281 C 7.679688 -11.589844 9.386719 -11.882812 10.523438 -11.621094 C 12.660156 -11.121094 13.273438 -9.378906 13.4375 -7.742188 C 12.410156 -8.015625 12.074219 -8.132812 11.660156 -8.226562 C 6.074219 -9.527344 2.703125 -7.695312 1.9375 -4.421875 C 1.273438 -1.558594 3.382812 1.078125 6.832031 1.882812 C 8.902344 2.363281 11.347656 2.316406 13.644531 0.886719 C 13.910156 2.875 15.109375 3.8125 16.523438 4.140625 C 18.28125 4.550781 21.011719 3.914062 21.367188 2.394531 C 21.460938 1.980469 21.300781 1.582031 20.914062 1.527344 Z M 10.410156 -0.519531 C 8.546875 -0.953125 7.535156 -2.535156 7.929688 -4.226562 C 8.308594 -5.699219 9.78125 -6.410156 11.679688 -5.96875 C 12.816406 -5.703125 13.1875 -5.253906 13.277344 -4.398438 C 13.414062 -3.421875 13.523438 -2.484375 13.511719 -2.125 C 13.488281 -0.785156 11.929688 -0.167969 10.410156 -0.519531 Z M 10.410156 -0.519531 "/></g></g></g><g fill="#fff2d5" fill-opacity="1"><g transform="translate(558.813379, 351.401182)"><g><path d="M 15.609375 -14.949219 C 14.214844 -15.1875 12.296875 -14.902344 10.476562 -13.054688 L 10.710938 -14.453125 C 10.847656 -15.257812 10.6875 -15.785156 9.996094 -15.941406 C 9.402344 -16.039062 6.105469 -15.664062 4.554688 -15.210938 C 3.652344 -14.96875 3.222656 -14.753906 3.101562 -14.054688 C 2.996094 -13.425781 3.367188 -13.078125 3.566406 -12.757812 C 3.976562 -12.21875 4.539062 -11.730469 4.402344 -10.925781 L 3.34375 -4.675781 C 2.804688 -1.5 1.195312 -2.8125 0.886719 -1 C 0.738281 -0.125 1.363281 0.230469 2.511719 0.425781 L 8.796875 1.492188 C 9.84375 1.671875 10.503906 1.601562 10.652344 0.730469 C 10.972656 -1.15625 9.054688 -0.441406 9.59375 -3.617188 L 10.421875 -8.503906 C 10.757812 -10.496094 11.691406 -11.125 12.667969 -10.960938 C 14.484375 -10.652344 14.023438 -8.574219 15.980469 -8.242188 C 17.132812 -8.046875 18.171875 -8.878906 18.492188 -10.761719 C 18.859375 -12.925781 17.738281 -14.589844 15.609375 -14.949219 Z M 15.609375 -14.949219 "/></g></g></g><g fill="#fff2d5" fill-opacity="1"><g transform="translate(576.33119, 354.417982)"><g><path d="M 20.945312 -1.023438 C 20.058594 -1.046875 19.871094 -1.957031 19.636719 -3.085938 L 18.4375 -8.84375 C 17.824219 -11.757812 17.066406 -15.613281 11.960938 -16.164062 C 8.371094 -16.550781 5.335938 -14.847656 4.238281 -13.253906 C 3.527344 -12.261719 4.414062 -11.5625 5.132812 -11.949219 C 6.21875 -12.4375 7.875 -12.9375 9.035156 -12.8125 C 11.21875 -12.574219 12.039062 -10.921875 12.398438 -9.316406 C 11.347656 -9.464844 11 -9.535156 10.574219 -9.582031 C 4.871094 -10.195312 1.746094 -7.96875 1.386719 -4.621094 C 1.074219 -1.699219 3.492188 0.660156 7.011719 1.039062 C 9.125 1.265625 11.546875 0.921875 13.652344 -0.773438 C 14.15625 1.167969 15.460938 1.949219 16.902344 2.105469 C 18.699219 2.296875 21.332031 1.332031 21.5 -0.214844 C 21.542969 -0.636719 21.335938 -1.015625 20.945312 -1.023438 Z M 10.269531 -1.78125 C 8.371094 -1.984375 7.171875 -3.429688 7.355469 -5.15625 C 7.554688 -6.667969 8.933594 -7.550781 10.867188 -7.34375 C 12.03125 -7.21875 12.449219 -6.816406 12.644531 -5.976562 C 12.898438 -5.023438 13.121094 -4.109375 13.152344 -3.75 C 13.292969 -2.414062 11.820312 -1.613281 10.269531 -1.78125 Z M 10.269531 -1.78125 "/></g></g></g><g fill="#fff2d5" fill-opacity="1"><g transform="translate(598.214235, 357.022785)"><g><path d="M 31.25 -9.582031 C 30.40625 -13.496094 29.585938 -16.769531 24.878906 -16.863281 C 22.683594 -16.90625 20.75 -15.917969 19.40625 -14.171875 C 18.519531 -15.925781 16.839844 -17.019531 14.078125 -17.074219 C 11.957031 -17.117188 9.882812 -16.203125 8.429688 -14.355469 L 8.460938 -15.875 C 8.476562 -16.691406 8.238281 -17.191406 7.53125 -17.242188 C 6.929688 -17.253906 3.722656 -16.394531 2.257812 -15.714844 C 1.402344 -15.34375 1.007812 -15.066406 0.992188 -14.359375 C 0.980469 -13.722656 1.398438 -13.429688 1.640625 -13.144531 C 2.128906 -12.671875 2.757812 -12.269531 2.742188 -11.457031 L 2.617188 -5.121094 C 2.550781 -1.898438 0.765625 -2.960938 0.730469 -1.117188 C 0.714844 -0.234375 1.378906 0.0273438 2.550781 0.0507812 L 8.921875 0.175781 C 9.984375 0.199219 10.625 0.03125 10.640625 -0.851562 C 10.679688 -2.765625 8.890625 -1.773438 8.953125 -4.992188 L 9.050781 -9.984375 C 9.089844 -11.863281 10.425781 -13.289062 11.808594 -13.261719 C 13.789062 -13.222656 13.859375 -11.308594 13.820312 -9.253906 L 13.734375 -4.898438 C 13.667969 -1.675781 11.917969 -2.738281 11.882812 -0.898438 C 11.863281 -0.0117188 12.496094 0.246094 13.699219 0.269531 L 20.074219 0.398438 C 21.101562 0.417969 21.777344 0.253906 21.792969 -0.632812 C 21.832031 -2.542969 20.007812 -1.550781 20.070312 -4.773438 L 20.203125 -9.765625 C 20.246094 -11.820312 21.328125 -12.964844 22.605469 -12.941406 C 24.304688 -12.871094 24.589844 -11.273438 24.945312 -9.601562 L 26.046875 -4.265625 C 26.496094 -1.917969 24.617188 -1.992188 24.59375 -0.648438 C 24.574219 0.238281 25.207031 0.5 26.375 0.523438 L 32.535156 0.644531 C 33.5625 0.664062 34.238281 0.5 34.257812 -0.386719 C 34.285156 -1.871094 32.898438 -1.582031 32.480469 -3.679688 Z M 31.25 -9.582031 "/></g></g></g><g fill="#fff2d5" fill-opacity="1"><g transform="translate(633.092163, 357.368445)"><g><path d="M 16.804688 -7.367188 C 15.605469 -6.152344 14.15625 -4.996094 12.210938 -4.867188 C 10.019531 -4.726562 8.652344 -5.5625 7.871094 -6.683594 C 10.96875 -8.195312 13.027344 -9.285156 16.273438 -11.199219 C 16.75 -11.515625 17.035156 -12.0625 16.929688 -12.589844 C 16.417969 -15.574219 13.898438 -18.285156 9.304688 -17.988281 C 4.675781 -17.6875 0.257812 -13.605469 0.613281 -8.058594 C 0.9375 -3.078125 4.582031 0.0585938 9.703125 -0.273438 C 14.617188 -0.589844 17.585938 -4.082031 18.117188 -6.28125 C 18.394531 -7.46875 17.601562 -8.199219 16.804688 -7.367188 Z M 7.523438 -14.855469 C 8.933594 -15.515625 10.34375 -14.542969 11.171875 -12.714844 C 11.640625 -11.539062 10.910156 -11.277344 10.328125 -10.957031 C 9.097656 -10.203125 7.898438 -9.59375 6.722656 -9.09375 C 6.4375 -9.640625 6.230469 -10.691406 6.183594 -11.398438 C 6.0625 -13.273438 6.558594 -14.367188 7.523438 -14.855469 Z M 7.523438 -14.855469 "/></g></g></g><g fill="#fff2d5" fill-opacity="1"><g transform="translate(652.792265, 355.99118)"><g><path d="M 2.089844 -5.441406 C 2.453125 -2.238281 0.542969 -3.054688 0.75 -1.226562 C 0.851562 -0.347656 1.546875 -0.175781 2.710938 -0.308594 L 9.042969 -1.03125 C 10.097656 -1.152344 10.710938 -1.398438 10.609375 -2.277344 C 10.394531 -4.179688 8.75 -2.957031 8.386719 -6.160156 L 6.828125 -19.84375 L 6.3125 -24.667969 C 6.21875 -25.511719 5.914062 -25.976562 5.210938 -25.898438 C 4.578125 -25.824219 0.886719 -24.121094 -0.410156 -23.296875 C -1.210938 -22.8125 -1.527344 -22.492188 -1.460938 -21.894531 C -1.339844 -20.839844 0.253906 -20.914062 0.457031 -19.121094 Z M 2.089844 -5.441406 "/></g></g></g><g fill="#fff2d5" fill-opacity="1"><g transform="translate(585.993702, 319.825174)"><g><path d="M 17.09375 -2.761719 C 15.710938 -1.9375 14.113281 -1.21875 12.308594 -1.566406 C 10.273438 -1.953125 9.21875 -3.039062 8.769531 -4.246094 C 11.957031 -4.898438 14.09375 -5.40625 17.515625 -6.386719 C 18.023438 -6.5625 18.414062 -7 18.441406 -7.503906 C 18.679688 -10.351562 17.019531 -13.421875 12.75 -14.238281 C 8.453125 -15.058594 3.449219 -12.371094 2.464844 -7.21875 C 1.582031 -2.589844 4.171875 1.136719 8.929688 2.042969 C 13.492188 2.914062 17.03125 0.425781 18.035156 -1.457031 C 18.570312 -2.480469 18.019531 -3.332031 17.09375 -2.761719 Z M 10.382812 -11.796875 C 11.828125 -12.066406 12.886719 -10.84375 13.210938 -8.976562 C 13.359375 -7.792969 12.632812 -7.726562 12.023438 -7.570312 C 10.722656 -7.171875 9.480469 -6.898438 8.289062 -6.71875 C 8.160156 -7.289062 8.214844 -8.296875 8.34375 -8.953125 C 8.671875 -10.695312 9.386719 -11.578125 10.382812 -11.796875 Z M 10.382812 -11.796875 "/></g></g></g><g fill="#fff2d5" fill-opacity="1"><g transform="translate(604.478706, 323.356618)"><g><path d="M 14.882812 -1.699219 C 13.191406 -1.886719 9.855469 -1.824219 7.894531 -2.042969 C 6.597656 -2.1875 5.964844 -2.527344 6.039062 -3.191406 C 6.078125 -3.523438 6.277344 -3.804688 6.570312 -4.039062 C 7.601562 -3.621094 8.75 -3.394531 9.984375 -3.289062 C 14.488281 -2.988281 17.960938 -5.15625 18.351562 -8.640625 C 18.542969 -10.367188 18.0625 -11.800781 17.074219 -12.886719 C 18.71875 -12.835938 20.75 -13.28125 20.945312 -15.007812 C 21.042969 -15.90625 20.457031 -16.679688 19.527344 -16.78125 C 18.832031 -16.859375 18.296875 -16.582031 17.773438 -16.136719 C 16.097656 -14.675781 14.890625 -14.710938 14.160156 -14.792969 C 13.863281 -14.824219 13.597656 -14.855469 13.335938 -14.917969 C 12.777344 -15.046875 12.152344 -15.152344 11.484375 -15.191406 C 6.8125 -15.511719 3.117188 -12.832031 2.734375 -9.410156 C 2.523438 -7.550781 3.273438 -6.125 4.605469 -5.101562 C 2.820312 -4.460938 1.878906 -3.589844 1.710938 -2.0625 C 1.570312 -0.800781 2.148438 0.339844 3.441406 1.089844 C 2.199219 1.390625 1.261719 2.257812 1.144531 3.289062 C 0.835938 6.046875 5.03125 7.625 8.386719 8 C 13.933594 8.617188 18.574219 6.785156 19.007812 2.929688 C 19.28125 0.472656 17.804688 -1.371094 14.882812 -1.699219 Z M 10.5 -13.015625 C 12.359375 -12.808594 12.84375 -9.929688 12.621094 -7.9375 C 12.417969 -6.109375 11.59375 -5.363281 10.765625 -5.453125 C 8.738281 -5.679688 8.3125 -8.183594 8.582031 -10.609375 C 8.742188 -12.035156 9.46875 -13.132812 10.5 -13.015625 Z M 9.660156 5.617188 C 7.070312 5.328125 5.605469 4.59375 5.722656 3.566406 C 5.8125 2.734375 6.429688 2.636719 7.089844 2.742188 C 9.007812 3.023438 10.429688 2.949219 12.6875 3.199219 C 13.414062 3.316406 13.785156 3.625 13.71875 4.222656 C 13.613281 5.152344 12.75 5.964844 9.660156 5.617188 Z M 9.660156 5.617188 "/></g></g></g><g fill="#fff2d5" fill-opacity="1"><g transform="translate(624.730581, 325.593262)"><g><path d="M 14.699219 -2.886719 C 12.996094 -2.941406 9.675781 -2.609375 7.707031 -2.667969 C 6.402344 -2.710938 5.742188 -2.996094 5.765625 -3.667969 C 5.773438 -4 5.949219 -4.296875 6.226562 -4.554688 C 7.285156 -4.21875 8.453125 -4.085938 9.6875 -4.078125 C 14.203125 -4.140625 17.488281 -6.578125 17.597656 -10.085938 C 17.652344 -11.824219 17.058594 -13.210938 15.988281 -14.214844 C 17.628906 -14.296875 19.617188 -14.90625 19.671875 -16.640625 C 19.699219 -17.542969 19.054688 -18.265625 18.121094 -18.292969 C 17.417969 -18.316406 16.90625 -17.996094 16.421875 -17.511719 C 14.871094 -15.921875 13.664062 -15.859375 12.929688 -15.878906 C 12.628906 -15.890625 12.363281 -15.898438 12.09375 -15.941406 C 11.53125 -16.023438 10.894531 -16.078125 10.226562 -16.066406 C 5.542969 -16.007812 2.074219 -13.042969 1.96875 -9.601562 C 1.910156 -7.730469 2.773438 -6.367188 4.179688 -5.453125 C 2.453125 -4.671875 1.585938 -3.730469 1.539062 -2.191406 C 1.5 -0.921875 2.167969 0.167969 3.519531 0.8125 C 2.304688 1.207031 1.4375 2.152344 1.40625 3.1875 C 1.320312 5.957031 5.628906 7.195312 9 7.300781 C 14.578125 7.472656 19.058594 5.273438 19.179688 1.398438 C 19.257812 -1.074219 17.640625 -2.796875 14.699219 -2.886719 Z M 9.421875 -13.816406 C 11.292969 -13.757812 12.007812 -10.929688 11.945312 -8.925781 C 11.886719 -7.085938 11.128906 -6.273438 10.292969 -6.300781 C 8.253906 -6.363281 7.628906 -8.824219 7.703125 -11.261719 C 7.75 -12.699219 8.386719 -13.847656 9.421875 -13.816406 Z M 10.082031 4.824219 C 7.476562 4.746094 5.957031 4.128906 5.988281 3.09375 C 6.015625 2.257812 6.621094 2.109375 7.289062 2.164062 C 9.222656 2.292969 10.632812 2.101562 12.90625 2.171875 C 13.636719 2.226562 14.03125 2.507812 14.011719 3.109375 C 13.984375 4.042969 13.1875 4.921875 10.082031 4.824219 Z M 10.082031 4.824219 "/></g></g></g><g fill="#fff2d5" fill-opacity="1"><g transform="translate(644.989737, 326.071229)"><g><path d="M 8.015625 -8.519531 C 8.882812 -8.546875 9.210938 -8.792969 9.414062 -9.667969 L 9.625 -10.410156 C 9.832031 -11.285156 9.355469 -11.46875 8.523438 -11.445312 L 2.742188 -11.257812 C 1.910156 -11.230469 1.582031 -10.984375 1.378906 -10.109375 L 1.167969 -9.367188 C 0.929688 -8.488281 1.402344 -8.304688 2.269531 -8.332031 Z M 8.015625 -8.519531 "/></g></g></g><g fill="#fff2d5" fill-opacity="1"><g transform="translate(656.908418, 325.802648)"><g><path d="M 10.566406 -17.46875 C 8.542969 -17.242188 7.246094 -16.410156 6.394531 -15.152344 L 6.066406 -18.546875 L 5.660156 -23.105469 C 5.582031 -23.90625 5.304688 -24.347656 4.640625 -24.285156 C 4.074219 -24.230469 0.53125 -22.679688 -0.707031 -21.921875 C -1.46875 -21.476562 -1.777344 -21.179688 -1.722656 -20.613281 C -1.625 -19.617188 -0.0859375 -19.664062 0.078125 -17.96875 L 1.339844 -5.265625 C 1.5 -3.601562 1.488281 -2.324219 1.417969 -1.3125 C 1.332031 -0.464844 1.707031 -0.0625 2.636719 -0.152344 C 3.636719 -0.25 4.757812 -1.5 5.847656 -1.671875 C 7.171875 -1.867188 7.914062 -0.429688 11.007812 -0.726562 C 13.769531 -0.992188 18.582031 -3.640625 17.894531 -10.757812 C 17.445312 -15.449219 13.988281 -17.867188 10.566406 -17.46875 Z M 10.621094 -3.339844 C 8.925781 -3.179688 7.324219 -4.800781 6.988281 -7.960938 L 6.71875 -10.046875 C 6.441406 -12.574219 7.527344 -13.851562 8.757812 -13.972656 C 10.851562 -14.175781 12.183594 -11.148438 12.53125 -7.554688 C 12.671875 -6.089844 12.453125 -3.519531 10.621094 -3.339844 Z M 10.621094 -3.339844 "/></g></g></g><g fill="#fff2d5" fill-opacity="1"><g transform="translate(677.360321, 323.805841)"><g><path d="M 18.699219 -6.480469 C 17.886719 -6.265625 17.476562 -7.042969 16.964844 -8 L 14.355469 -12.898438 C 13.027344 -15.375 11.316406 -18.667969 6.546875 -17.8125 C 3.191406 -17.207031 0.898438 -14.863281 0.324219 -13.128906 C -0.0546875 -12.042969 0.933594 -11.640625 1.480469 -12.183594 C 2.332031 -12.914062 3.703125 -13.804688 4.785156 -13.996094 C 6.828125 -14.363281 8.007812 -13.082031 8.761719 -11.722656 C 7.765625 -11.578125 7.433594 -11.554688 7.039062 -11.480469 C 1.710938 -10.527344 -0.53125 -7.679688 0.03125 -4.554688 C 0.519531 -1.824219 3.335938 -0.328125 6.625 -0.917969 C 8.597656 -1.273438 10.703125 -2.226562 12.160156 -4.320312 C 13.128906 -2.695312 14.519531 -2.335938 15.867188 -2.578125 C 17.546875 -2.878906 19.671875 -4.449219 19.414062 -5.894531 C 19.34375 -6.289062 19.054688 -6.578125 18.699219 -6.480469 Z M 8.828125 -4.335938 C 7.054688 -4.015625 5.585938 -5.007812 5.296875 -6.621094 C 5.074219 -8.039062 6.089844 -9.207031 7.898438 -9.53125 C 8.984375 -9.726562 9.46875 -9.472656 9.867188 -8.765625 C 10.351562 -7.96875 10.792969 -7.199219 10.917969 -6.882812 C 11.402344 -5.710938 10.277344 -4.59375 8.828125 -4.335938 Z M 8.828125 -4.335938 "/></g></g></g><g fill="#fff2d5" fill-opacity="1"><g transform="translate(697.748405, 320.082594)"><g><path d="M 3.964844 -0.691406 C 4.609375 -0.859375 4.628906 -1.589844 5.082031 -1.707031 C 5.792969 -1.890625 7.261719 -1.550781 10.238281 -2.328125 C 13.4375 -3.164062 16.039062 -5.636719 15.203125 -8.839844 C 14.601562 -11.132812 12.445312 -11.988281 8.167969 -12.769531 C 5.585938 -13.269531 4.210938 -13.636719 3.992188 -14.476562 C 3.890625 -14.863281 4.046875 -15.457031 4.984375 -15.703125 C 6.339844 -16.058594 8.308594 -15.398438 9.789062 -14.886719 C 10.9375 -14.460938 11.726562 -14.078125 12.355469 -14.589844 C 12.804688 -14.980469 12.9375 -15.535156 12.164062 -16.644531 C 11.675781 -17.3125 11.429688 -17.59375 10.890625 -18.210938 C 9.898438 -19.230469 9.574219 -19.421875 8.992188 -19.269531 C 8.246094 -19.078125 8.277344 -18.566406 7.46875 -18.355469 C 6.472656 -18.0625 5.144531 -18.265625 3.203125 -17.757812 C 0.679688 -17.101562 -2.050781 -14.867188 -1.183594 -11.539062 C -0.472656 -8.820312 1.984375 -8.011719 4.445312 -7.585938 C 7.773438 -7.003906 9.519531 -6.527344 9.765625 -5.589844 C 9.882812 -5.136719 9.75 -4.582031 9.007812 -4.390625 C 6.9375 -3.847656 4.617188 -5.074219 2.5625 -6.058594 C 1.332031 -6.667969 0.558594 -6.984375 0.0390625 -6.46875 C -0.347656 -6.089844 -0.472656 -5.644531 -0.0234375 -4.726562 C 0.414062 -3.839844 1.085938 -2.976562 1.984375 -1.796875 C 2.804688 -0.765625 3.285156 -0.511719 3.964844 -0.691406 Z M 3.964844 -0.691406 "/></g></g></g><g fill="#fff2d5" fill-opacity="1"><g transform="translate(715.866042, 315.329485)"><g><path d="M 13.484375 -10.859375 C 12.695312 -9.460938 11.65625 -8.046875 9.917969 -7.453125 C 7.957031 -6.78125 6.507812 -7.203125 5.519531 -8.03125 C 7.964844 -10.171875 9.570312 -11.675781 12.054688 -14.21875 C 12.410156 -14.625 12.535156 -15.195312 12.308594 -15.648438 C 11.105469 -18.238281 8.144531 -20.085938 4.03125 -18.683594 C -0.109375 -17.265625 -3.128906 -12.457031 -1.429688 -7.492188 C 0.09375 -3.035156 4.1875 -1.078125 8.773438 -2.644531 C 13.167969 -4.148438 15.007812 -8.0625 14.949219 -10.195312 C 14.910156 -11.347656 14.007812 -11.816406 13.484375 -10.859375 Z M 3.179688 -15.390625 C 4.304688 -16.339844 5.828125 -15.800781 7.035156 -14.339844 C 7.75 -13.382812 7.152344 -12.96875 6.699219 -12.53125 C 5.765625 -11.542969 4.820312 -10.6875 3.875 -9.941406 C 3.480469 -10.371094 3.03125 -11.277344 2.816406 -11.910156 C 2.242188 -13.585938 2.425781 -14.707031 3.179688 -15.390625 Z M 3.179688 -15.390625 "/></g></g></g><g fill="#fff2d5" fill-opacity="1"><g transform="translate(733.691509, 309.25916)"><g><path d="M 7.707031 -27.800781 C 7.390625 -28.535156 6.988281 -28.875 6.40625 -28.621094 C 5.855469 -28.382812 2.988281 -25.832031 2.015625 -24.71875 C 1.425781 -24.0625 1.253906 -23.699219 1.480469 -23.175781 C 1.878906 -22.257812 3.3125 -22.730469 3.976562 -21.199219 L 4.71875 -19.480469 C 4.023438 -19.398438 3.222656 -19.234375 2.332031 -18.847656 C -0.855469 -17.46875 -4.257812 -12.539062 -1.738281 -6.710938 C -0.0117188 -2.726562 3.582031 -1.402344 6.773438 -2.601562 C 9.035156 -3.433594 10.125 -4.960938 10.570312 -6.539062 C 11.304688 -5.179688 11.960938 -4.917969 12.914062 -5.332031 C 13.894531 -5.753906 15.800781 -7.492188 16.617188 -8.460938 C 17.277344 -9.292969 17.5 -9.789062 17.261719 -10.34375 C 16.863281 -11.261719 15.21875 -10.1875 14.277344 -12.363281 L 9.480469 -23.617188 Z M 7.859375 -7.078125 C 5.960938 -6.253906 3.757812 -8.144531 2.40625 -11.273438 C 1.277344 -13.878906 1.5 -15.722656 3.035156 -16.386719 C 3.984375 -16.796875 5.066406 -16.570312 6.039062 -15.5 C 6.347656 -15.125 6.789062 -14.441406 7.34375 -13.40625 L 8.644531 -10.402344 C 9.164062 -8.695312 8.964844 -7.554688 7.859375 -7.078125 Z M 7.859375 -7.078125 "/></g></g></g><g fill="#fff2d5" fill-opacity="1"><g transform="translate(668.488297, 347.179952)"><g/></g></g><g fill="#fff2d5" fill-opacity="1"><g transform="translate(675.345984, 346.890521)"><g><path d="M 10.535156 -17.011719 C 8.136719 -16.75 6.679688 -15.554688 5.800781 -14.128906 L 5.679688 -15.25 C 5.59375 -16.015625 5.320312 -16.441406 4.683594 -16.371094 C 4.140625 -16.3125 1.351562 -15.164062 0.105469 -14.414062 C -0.621094 -13.976562 -0.945312 -13.683594 -0.871094 -13.011719 C -0.808594 -12.4375 -0.398438 -12.222656 -0.144531 -11.992188 C 0.316406 -11.621094 0.929688 -11.332031 1.007812 -10.628906 L 2.332031 1.492188 C 2.648438 4.402344 0.949219 3.652344 1.136719 5.34375 C 1.21875 6.113281 1.820312 6.273438 2.875 6.160156 L 8.632812 5.527344 C 9.589844 5.425781 10.148438 5.199219 10.0625 4.402344 C 9.871094 2.675781 8.375 3.777344 8.054688 0.867188 L 7.789062 -1.5625 C 8.808594 -1.125 10.109375 -0.78125 11.546875 -0.9375 C 14.296875 -1.238281 18.5 -3.964844 17.792969 -10.425781 C 17.261719 -15.285156 13.765625 -17.363281 10.535156 -17.011719 Z M 10.695312 -3.402344 C 9.035156 -3.222656 7.527344 -4.867188 7.136719 -7.835938 L 6.898438 -9.71875 C 6.613281 -12.019531 7.566406 -13.382812 8.683594 -13.507812 C 10.988281 -13.757812 12.214844 -10.527344 12.546875 -7.488281 C 12.710938 -5.984375 12.457031 -3.59375 10.695312 -3.402344 Z M 10.695312 -3.402344 "/></g></g></g><g fill="#fff2d5" fill-opacity="1"><g transform="translate(695.607361, 344.662137)"><g><path d="M 15.085938 -17.5 C 14.945312 -18.257812 14.644531 -18.660156 14.011719 -18.546875 C 13.441406 -18.445312 10.195312 -16.683594 9.070312 -15.859375 C 8.375 -15.371094 8.101562 -15.0625 8.199219 -14.523438 C 8.371094 -13.574219 9.84375 -13.742188 10.136719 -12.128906 L 10.746094 -8.933594 C 10.996094 -6.824219 10.246094 -5.183594 8.910156 -4.976562 C 7.546875 -4.730469 7.003906 -5.742188 6.652344 -7.707031 L 5.988281 -11.378906 L 5.238281 -15.722656 C 5.101562 -16.480469 4.800781 -16.886719 4.164062 -16.769531 C 3.628906 -16.671875 0.351562 -14.90625 -0.777344 -14.082031 C -1.472656 -13.59375 -1.742188 -13.285156 -1.644531 -12.746094 C -1.476562 -11.796875 0 -11.964844 0.289062 -10.351562 L 1.007812 -6.558594 C 1.679688 -2.820312 3.753906 -0.382812 7.492188 -1.058594 C 9.136719 -1.355469 10.871094 -2.617188 11.730469 -4.371094 L 11.832031 -4 C 12.210938 -2.433594 12.777344 -2.011719 13.792969 -2.195312 C 14.804688 -2.378906 16.980469 -3.554688 17.984375 -4.324219 C 18.757812 -4.921875 19.070312 -5.371094 18.96875 -5.941406 C 18.796875 -6.890625 17.054688 -6.214844 16.644531 -8.496094 L 15.835938 -13.15625 Z M 15.085938 -17.5 "/></g></g></g><g fill="#fff2d5" fill-opacity="1"><g transform="translate(716.072709, 340.940961)"><g><path d="M 11.59375 -25.238281 C 11.40625 -25.988281 11.078125 -26.371094 10.484375 -26.21875 C 9.921875 -26.078125 6.808594 -24.09375 5.710938 -23.183594 C 5.046875 -22.652344 4.832031 -22.332031 4.964844 -21.800781 C 5.203125 -20.867188 6.636719 -21.097656 7.03125 -19.535156 L 7.472656 -17.789062 C 6.804688 -17.820312 6.015625 -17.785156 5.109375 -17.558594 C 1.867188 -16.734375 -2.121094 -12.570312 -0.621094 -6.644531 C 0.40625 -2.59375 3.617188 -0.785156 6.839844 -1.433594 C 9.117188 -1.878906 10.382812 -3.160156 11.050781 -4.589844 C 11.539062 -3.1875 12.125 -2.839844 13.089844 -3.082031 C 14.089844 -3.335938 16.167969 -4.691406 17.09375 -5.492188 C 17.847656 -6.179688 18.136719 -6.617188 17.996094 -7.179688 C 17.757812 -8.117188 16.027344 -7.34375 15.46875 -9.558594 L 12.636719 -20.988281 Z M 8.558594 -5.519531 C 6.625 -5.03125 4.824219 -7.164062 4.015625 -10.34375 C 3.347656 -12.996094 3.839844 -14.710938 5.398438 -15.109375 C 6.367188 -15.351562 7.359375 -14.972656 8.117188 -13.804688 C 8.355469 -13.398438 8.667969 -12.683594 9.039062 -11.617188 L 9.8125 -8.558594 C 10.042969 -6.859375 9.679688 -5.804688 8.558594 -5.519531 Z M 8.558594 -5.519531 "/></g></g></g><g fill="#fff2d5" fill-opacity="1"><g transform="translate(735.791142, 335.926447)"><g><path d="M 9.832031 -25.976562 C 9.59375 -26.710938 9.238281 -27.066406 8.65625 -26.878906 C 8.105469 -26.699219 5.136719 -24.503906 4.101562 -23.523438 C 3.480469 -22.945312 3.285156 -22.609375 3.457031 -22.089844 C 3.757812 -21.171875 5.171875 -21.503906 5.671875 -19.972656 L 6.234375 -18.261719 C 5.5625 -18.246094 4.777344 -18.15625 3.890625 -17.867188 C 0.714844 -16.824219 -2.980469 -12.394531 -1.078125 -6.585938 C 0.226562 -2.613281 3.554688 -1.03125 6.722656 -1.898438 C 8.964844 -2.5 10.140625 -3.867188 10.707031 -5.339844 C 11.292969 -3.972656 11.902344 -3.664062 12.847656 -3.976562 C 13.828125 -4.296875 15.808594 -5.792969 16.675781 -6.652344 C 17.382812 -7.394531 17.640625 -7.847656 17.457031 -8.398438 C 17.15625 -9.316406 15.484375 -8.429688 14.773438 -10.601562 L 11.164062 -21.808594 Z M 8.160156 -6.09375 C 6.261719 -5.472656 4.320312 -7.476562 3.296875 -10.59375 C 2.445312 -13.195312 2.820312 -14.941406 4.347656 -15.441406 C 5.296875 -15.753906 6.3125 -15.445312 7.152344 -14.332031 C 7.414062 -13.941406 7.777344 -13.25 8.21875 -12.210938 L 9.203125 -9.214844 C 9.550781 -7.53125 9.257812 -6.457031 8.160156 -6.09375 Z M 8.160156 -6.09375 "/></g></g></g><g fill="#fff2d5" fill-opacity="1"><g transform="translate(754.984472, 329.488023)"><g><path d="M -2.253906 -17.238281 C -0.300781 -17.992188 1.015625 -20.296875 0.296875 -22.15625 C -0.257812 -23.496094 -1.683594 -23.976562 -2.992188 -23.4375 C -4.882812 -22.707031 -6.019531 -20.199219 -5.339844 -18.527344 C -4.898438 -17.386719 -3.722656 -16.671875 -2.253906 -17.238281 Z M 0.40625 -5.191406 C 1.460938 -2.460938 -0.375 -2.753906 0.230469 -1.191406 C 0.519531 -0.441406 1.140625 -0.441406 2.160156 -0.835938 L 7.5625 -2.925781 C 8.433594 -3.261719 8.945312 -3.632812 8.652344 -4.382812 C 8.027344 -6.003906 6.832031 -4.539062 5.777344 -7.269531 L 3.828125 -12.3125 L 2.265625 -16.433594 C 1.988281 -17.152344 1.617188 -17.492188 1.015625 -17.261719 C 0.507812 -17.0625 -2.347656 -14.71875 -3.328125 -13.683594 C -3.917969 -13.074219 -4.097656 -12.730469 -3.898438 -12.222656 C -3.550781 -11.320312 -2.152344 -11.722656 -1.574219 -10.222656 Z M 0.40625 -5.191406 "/></g></g></g><g fill="#fff2d5" fill-opacity="1"><g transform="translate(764.963336, 325.77546)"><g><path d="M 12.878906 -15.972656 C 10.691406 -18.867188 8.507812 -21.128906 4.722656 -19.421875 C 2.875 -18.589844 1.621094 -17.140625 1.230469 -15.273438 L 0.753906 -16.328125 C 0.449219 -17.003906 0.0585938 -17.320312 -0.539062 -17.085938 C -1.039062 -16.859375 -3.335938 -14.90625 -4.273438 -13.777344 C -4.832031 -13.136719 -5.046875 -12.757812 -4.78125 -12.171875 C -4.542969 -11.644531 -4.085938 -11.566406 -3.777344 -11.425781 C -3.191406 -11.230469 -2.519531 -11.144531 -2.214844 -10.46875 L 0.152344 -5.222656 C 1.355469 -2.550781 -0.523438 -2.726562 0.164062 -1.203125 C 0.492188 -0.46875 1.144531 -0.515625 2.113281 -0.953125 L 7.390625 -3.332031 C 8.269531 -3.730469 8.730469 -4.113281 8.402344 -4.847656 C 7.6875 -6.429688 6.605469 -4.917969 5.402344 -7.589844 L 3.535156 -11.722656 C 2.847656 -13.25 3.09375 -14.734375 4.296875 -15.277344 C 5.542969 -15.804688 6.785156 -14.777344 7.699219 -13.53125 L 10.679688 -9.578125 C 11.960938 -7.828125 10.394531 -7.15625 10.898438 -6.042969 C 11.226562 -5.308594 11.847656 -5.34375 12.847656 -5.792969 L 17.917969 -8.082031 C 18.800781 -8.476562 19.261719 -8.863281 18.929688 -9.59375 C 18.375 -10.828125 17.378906 -10.058594 16.1875 -11.605469 Z M 12.878906 -15.972656 "/></g></g></g><g fill="#fff2d5" fill-opacity="1"><g transform="translate(784.752571, 316.788548)"><g><path d="M 10.859375 -9.492188 C 9.414062 -8.714844 6.804688 -6.839844 5.132812 -5.9375 C 4.03125 -5.34375 3.339844 -5.265625 3.035156 -5.832031 C 2.882812 -6.117188 2.886719 -6.449219 2.992188 -6.796875 C 4.039062 -7.03125 5.074219 -7.476562 6.109375 -8.070312 C 9.839844 -10.296875 11.402344 -13.914062 9.804688 -16.886719 C 9.011719 -18.363281 7.847656 -19.234375 6.472656 -19.554688 C 7.796875 -20.414062 9.164062 -21.878906 8.375 -23.351562 C 7.960938 -24.117188 7.074219 -24.40625 6.28125 -23.980469 C 5.6875 -23.660156 5.414062 -23.148438 5.246094 -22.511719 C 4.71875 -20.4375 3.742188 -19.800781 3.121094 -19.46875 C 2.863281 -19.332031 2.636719 -19.207031 2.394531 -19.113281 C 1.882812 -18.914062 1.332031 -18.652344 0.777344 -18.316406 C -3.097656 -16.015625 -4.554688 -11.871094 -2.988281 -8.949219 C -2.132812 -7.363281 -0.757812 -6.640625 0.855469 -6.558594 C -0.207031 -5.074219 -0.476562 -3.871094 0.226562 -2.570312 C 0.804688 -1.492188 1.886719 -0.90625 3.324219 -1.019531 C 2.5 -0.101562 2.234375 1.097656 2.707031 1.976562 C 3.972656 4.328125 8.160156 3.285156 11.019531 1.746094 C 15.753906 -0.800781 18.425781 -4.792969 16.660156 -8.082031 C 15.53125 -10.179688 13.351562 -10.832031 10.859375 -9.492188 Z M 1.191406 -16.054688 C 2.777344 -16.910156 4.738281 -14.894531 5.652344 -13.195312 C 6.492188 -11.636719 6.25 -10.59375 5.539062 -10.210938 C 3.8125 -9.28125 2.105469 -11.03125 0.992188 -13.097656 C 0.335938 -14.316406 0.3125 -15.582031 1.191406 -16.054688 Z M 10.726562 -0.835938 C 8.515625 0.351562 6.953125 0.570312 6.484375 -0.308594 C 6.101562 -1.015625 6.535156 -1.433594 7.117188 -1.707031 C 8.792969 -2.535156 9.875 -3.375 11.800781 -4.410156 C 12.441406 -4.71875 12.902344 -4.671875 13.175781 -4.164062 C 13.601562 -3.371094 13.363281 -2.253906 10.726562 -0.835938 Z M 10.726562 -0.835938 "/></g></g></g></svg>